<?xml version="1.0" encoding="utf-8" standalone="no"?>
<!DOCTYPE svg PUBLIC "-//W3C//DTD SVG 1.1//EN"
  "http://www.w3.org/Graphics/SVG/1.1/DTD/svg11.dtd">
<svg xmlns:xlink="http://www.w3.org/1999/xlink" width="556.760798pt" height="404.200312pt" viewBox="0 0 556.760798 404.200312" xmlns="http://www.w3.org/2000/svg" version="1.1">
 <metadata>
  <rdf:RDF xmlns:dc="http://purl.org/dc/elements/1.1/" xmlns:cc="http://creativecommons.org/ns#" xmlns:rdf="http://www.w3.org/1999/02/22-rdf-syntax-ns#">
   <cc:Work>
    <dc:type rdf:resource="http://purl.org/dc/dcmitype/StillImage"/>
    <dc:date>2026-10-01T10:36:22.592482</dc:date>
    <dc:format>image/svg+xml</dc:format>
    <dc:creator>
     <cc:Agent>
      <dc:title>Matplotlib v3.11.2, https://matplotlib.org/</dc:title>
     </cc:Agent>
    </dc:creator>
   </cc:Work>
  </rdf:RDF>
 </metadata>
 <defs>
  <style type="text/css">*{stroke-linejoin: round; stroke-linecap: butt}</style>
 </defs>
 <g id="figure_1">
  <g id="patch_1">
   <path d="M 0 404.200312 
L 556.760798 404.200312 
L 556.760798 0 
L 0 0 
z
" style="fill: #ffffff"/>
  </g>
  <g id="patch_2">
   <path d="M 183.42 355.717969 
L 516.06 355.717969 
L 516.06 23.077969 
L 183.42 23.077969 
z
" style="fill: #ffffff"/>
  </g>
  <g id="pane3d_1">
   <g id="patch_3">
    <path d="M 205.767603 268.727408 
L 330.204837 199.20857 
L 329.413105 60.11719 
L 200.422914 119.254884 
" style="fill: #f2f2f2; opacity: 0.5; stroke: #f2f2f2; stroke-linejoin: miter"/>
   </g>
  </g>
  <g id="pane3d_2">
   <g id="patch_4">
    <path d="M 330.204837 199.20857 
L 498.826992 246.615478 
L 503.891522 100.407034 
L 329.413105 60.11719 
" style="fill: #e6e6e6; opacity: 0.5; stroke: #e6e6e6; stroke-linejoin: miter"/>
   </g>
  </g>
  <g id="pane3d_3">
   <g id="patch_5">
    <path d="M 205.767603 268.727408 
L 382.162353 325.29892 
L 498.826992 246.615478 
L 330.204837 199.20857 
" style="fill: #ececec; opacity: 0.5; stroke: #ececec; stroke-linejoin: miter"/>
   </g>
  </g>
  <g id="grid3d_1">
   <g id="Line3DCollection_1">
    <path d="M 216.332062 272.115533 
L 340.35581 202.062444 
L 339.896791 62.53804 
" style="fill: none; stroke: #b0b0b0; stroke-width: 0.8"/>
    <path d="M 237.2767 278.832682 
L 360.461003 207.714874 
L 360.668447 67.334546 
" style="fill: none; stroke: #b0b0b0; stroke-width: 0.8"/>
    <path d="M 258.554831 285.656785 
L 380.859569 213.449784 
L 381.753376 72.203392 
" style="fill: none; stroke: #b0b0b0; stroke-width: 0.8"/>
    <path d="M 280.174485 292.590419 
L 401.557976 219.268993 
L 403.158718 77.146226 
" style="fill: none; stroke: #b0b0b0; stroke-width: 0.8"/>
    <path d="M 302.14395 299.63624 
L 422.562885 225.174372 
L 424.891835 82.164749 
" style="fill: none; stroke: #b0b0b0; stroke-width: 0.8"/>
    <path d="M 324.471786 306.796994 
L 443.881154 231.16785 
L 446.960312 87.260711 
" style="fill: none; stroke: #b0b0b0; stroke-width: 0.8"/>
    <path d="M 347.166834 314.075516 
L 465.519847 237.251414 
L 469.371971 92.43592 
" style="fill: none; stroke: #b0b0b0; stroke-width: 0.8"/>
    <path d="M 370.238227 321.474737 
L 487.486245 243.427109 
L 492.134882 97.692238 
" style="fill: none; stroke: #b0b0b0; stroke-width: 0.8"/>
   </g>
  </g>
  <g id="grid3d_2">
   <g id="Line3DCollection_2">
    <path d="M 209.339158 115.167084 
L 214.345539 263.935208 
L 390.245521 319.847298 
" style="fill: none; stroke: #b0b0b0; stroke-width: 0.8"/>
    <path d="M 226.508238 107.295635 
L 230.873021 254.701867 
L 405.802508 309.355025 
" style="fill: none; stroke: #b0b0b0; stroke-width: 0.8"/>
    <path d="M 243.291938 99.600869 
L 247.042065 245.668774 
L 421.000225 299.105058 
" style="fill: none; stroke: #b0b0b0; stroke-width: 0.8"/>
    <path d="M 259.703092 92.076903 
L 262.864206 236.829483 
L 435.850975 289.0891 
" style="fill: none; stroke: #b0b0b0; stroke-width: 0.8"/>
    <path d="M 275.753965 84.718114 
L 278.350491 228.177824 
L 450.366506 279.299227 
" style="fill: none; stroke: #b0b0b0; stroke-width: 0.8"/>
    <path d="M 291.456294 77.51912 
L 293.5115 219.707885 
L 464.558042 269.72787 
" style="fill: none; stroke: #b0b0b0; stroke-width: 0.8"/>
    <path d="M 306.82131 70.474774 
L 308.357376 211.414001 
L 478.43631 260.367794 
" style="fill: none; stroke: #b0b0b0; stroke-width: 0.8"/>
    <path d="M 321.859766 63.580144 
L 322.897843 203.290739 
L 492.01157 251.212079 
" style="fill: none; stroke: #b0b0b0; stroke-width: 0.8"/>
   </g>
  </g>
  <g id="grid3d_3">
   <g id="Line3DCollection_3">
    <path d="M 498.997793 241.68459 
L 330.178083 194.508583 
L 205.587516 263.691012 
" style="fill: none; stroke: #b0b0b0; stroke-width: 0.8"/>
    <path d="M 499.94471 214.347949 
L 330.029831 168.463614 
L 204.588918 235.763652 
" style="fill: none; stroke: #b0b0b0; stroke-width: 0.8"/>
    <path d="M 500.904097 186.651326 
L 329.87974 142.095648 
L 203.576812 207.458528 
" style="fill: none; stroke: #b0b0b0; stroke-width: 0.8"/>
    <path d="M 501.8762 158.587563 
L 329.727777 115.398641 
L 202.550922 178.767924 
" style="fill: none; stroke: #b0b0b0; stroke-width: 0.8"/>
    <path d="M 502.861276 130.149311 
L 329.573905 88.366393 
L 201.510965 149.68391 
" style="fill: none; stroke: #b0b0b0; stroke-width: 0.8"/>
    <path d="M 503.859585 101.329025 
L 329.418088 60.992551 
L 200.456649 120.198339 
" style="fill: none; stroke: #b0b0b0; stroke-width: 0.8"/>
   </g>
  </g>
  <g id="axis3d_1">
   <g id="line2d_1">
    <path d="M 205.767603 268.727408 
L 382.162353 325.29892 
" style="fill: none; stroke: #000000; stroke-width: 0.8; stroke-linecap: square"/>
   </g>
   <g id="xtick_1">
    <g id="line2d_2">
     <path d="M 217.412542 271.505238 
L 214.16644 273.338754 
" style="fill: none; stroke: #000000; stroke-width: 0.8; stroke-linecap: square"/>
    </g>
    <g id="text_1">
     <!-- 0 -->
     <g transform="translate(204.467067 294.441643) scale(0.1 -0.1)">
      <defs>
       <path id="DejaVuSans-13" d="M 2034 4250 
Q 1547 4250 1301 3770 
Q 1056 3291 1056 2328 
Q 1056 1369 1301 889 
Q 1547 409 2034 409 
Q 2525 409 2770 889 
Q 3016 1369 3016 2328 
Q 3016 3291 2770 3770 
Q 2525 4250 2034 4250 
z
M 2034 4750 
Q 2819 4750 3233 4129 
Q 3647 3509 3647 2328 
Q 3647 1150 3233 529 
Q 2819 -91 2034 -91 
Q 1250 -91 836 529 
Q 422 1150 422 2328 
Q 422 3509 836 4129 
Q 1250 4750 2034 4750 
z
" transform="scale(0.015625)"/>
      </defs>
      <use xlink:href="#DejaVuSans-13"/>
     </g>
    </g>
   </g>
   <g id="xtick_2">
    <g id="line2d_3">
     <path d="M 238.350559 278.212712 
L 235.124312 280.075317 
" style="fill: none; stroke: #000000; stroke-width: 0.8; stroke-linecap: square"/>
    </g>
    <g id="text_2">
     <!-- 2 -->
     <g transform="translate(225.420048 301.300306) scale(0.1 -0.1)">
      <defs>
       <path id="DejaVuSans-15" d="M 1228 531 
L 3431 531 
L 3431 0 
L 469 0 
L 469 531 
Q 828 903 1448 1529 
Q 2069 2156 2228 2338 
Q 2531 2678 2651 2914 
Q 2772 3150 2772 3378 
Q 2772 3750 2511 3984 
Q 2250 4219 1831 4219 
Q 1534 4219 1204 4116 
Q 875 4013 500 3803 
L 500 4441 
Q 881 4594 1212 4672 
Q 1544 4750 1819 4750 
Q 2544 4750 2975 4387 
Q 3406 4025 3406 3419 
Q 3406 3131 3298 2873 
Q 3191 2616 2906 2266 
Q 2828 2175 2409 1742 
Q 1991 1309 1228 531 
z
" transform="scale(0.015625)"/>
      </defs>
      <use xlink:href="#DejaVuSans-15"/>
     </g>
    </g>
   </g>
   <g id="xtick_3">
    <g id="line2d_4">
     <path d="M 259.621721 285.026909 
L 256.416375 286.9193 
" style="fill: none; stroke: #000000; stroke-width: 0.8; stroke-linecap: square"/>
    </g>
    <g id="text_3">
     <!-- 4 -->
     <g transform="translate(246.707894 308.268582) scale(0.1 -0.1)">
      <defs>
       <path id="DejaVuSans-17" d="M 2419 4116 
L 825 1625 
L 2419 1625 
L 2419 4116 
z
M 2253 4666 
L 3047 4666 
L 3047 1625 
L 3713 1625 
L 3713 1100 
L 3047 1100 
L 3047 0 
L 2419 0 
L 2419 1100 
L 313 1100 
L 313 1709 
L 2253 4666 
z
" transform="scale(0.015625)"/>
      </defs>
      <use xlink:href="#DejaVuSans-17"/>
     </g>
    </g>
   </g>
   <g id="xtick_4">
    <g id="line2d_5">
     <path d="M 281.234042 291.950395 
L 278.050688 293.873293 
" style="fill: none; stroke: #000000; stroke-width: 0.8; stroke-linecap: square"/>
    </g>
    <g id="text_4">
     <!-- 6 -->
     <g transform="translate(268.338698 315.349121) scale(0.1 -0.1)">
      <defs>
       <path id="DejaVuSans-19" d="M 2113 2584 
Q 1688 2584 1439 2293 
Q 1191 2003 1191 1497 
Q 1191 994 1439 701 
Q 1688 409 2113 409 
Q 2538 409 2786 701 
Q 3034 994 3034 1497 
Q 3034 2003 2786 2293 
Q 2538 2584 2113 2584 
z
M 3366 4563 
L 3366 3988 
Q 3128 4100 2886 4159 
Q 2644 4219 2406 4219 
Q 1781 4219 1451 3797 
Q 1122 3375 1075 2522 
Q 1259 2794 1537 2939 
Q 1816 3084 2150 3084 
Q 2853 3084 3261 2657 
Q 3669 2231 3669 1497 
Q 3669 778 3244 343 
Q 2819 -91 2113 -91 
Q 1303 -91 875 529 
Q 447 1150 447 2328 
Q 447 3434 972 4092 
Q 1497 4750 2381 4750 
Q 2619 4750 2861 4703 
Q 3103 4656 3366 4563 
z
" transform="scale(0.015625)"/>
      </defs>
      <use xlink:href="#DejaVuSans-19"/>
     </g>
    </g>
   </g>
   <g id="xtick_5">
    <g id="line2d_6">
     <path d="M 303.195797 298.985823 
L 300.03557 300.939971 
" style="fill: none; stroke: #000000; stroke-width: 0.8; stroke-linecap: square"/>
    </g>
    <g id="text_5">
     <!-- 8 -->
     <g transform="translate(290.320815 322.544658) scale(0.1 -0.1)">
      <defs>
       <path id="DejaVuSans-1b" d="M 2034 2216 
Q 1584 2216 1326 1975 
Q 1069 1734 1069 1313 
Q 1069 891 1326 650 
Q 1584 409 2034 409 
Q 2484 409 2743 651 
Q 3003 894 3003 1313 
Q 3003 1734 2745 1975 
Q 2488 2216 2034 2216 
z
M 1403 2484 
Q 997 2584 770 2862 
Q 544 3141 544 3541 
Q 544 4100 942 4425 
Q 1341 4750 2034 4750 
Q 2731 4750 3128 4425 
Q 3525 4100 3525 3541 
Q 3525 3141 3298 2862 
Q 3072 2584 2669 2484 
Q 3125 2378 3379 2068 
Q 3634 1759 3634 1313 
Q 3634 634 3220 271 
Q 2806 -91 2034 -91 
Q 1263 -91 848 271 
Q 434 634 434 1313 
Q 434 1759 690 2068 
Q 947 2378 1403 2484 
z
M 1172 3481 
Q 1172 3119 1398 2916 
Q 1625 2713 2034 2713 
Q 2441 2713 2670 2916 
Q 2900 3119 2900 3481 
Q 2900 3844 2670 4047 
Q 2441 4250 2034 4250 
Q 1625 4250 1398 4047 
Q 1172 3844 1172 3481 
z
" transform="scale(0.015625)"/>
      </defs>
      <use xlink:href="#DejaVuSans-1b"/>
     </g>
    </g>
   </g>
   <g id="xtick_6">
    <g id="line2d_7">
     <path d="M 325.51553 306.135928 
L 322.37961 308.122095 
" style="fill: none; stroke: #000000; stroke-width: 0.8; stroke-linecap: square"/>
    </g>
    <g id="text_6">
     <!-- 10 -->
     <g transform="translate(309.481624 329.858016) scale(0.1 -0.1)">
      <defs>
       <path id="DejaVuSans-14" d="M 794 531 
L 1825 531 
L 1825 4091 
L 703 3866 
L 703 4441 
L 1819 4666 
L 2450 4666 
L 2450 531 
L 3481 531 
L 3481 0 
L 794 0 
L 794 531 
z
" transform="scale(0.015625)"/>
      </defs>
      <use xlink:href="#DejaVuSans-14"/>
      <use xlink:href="#DejaVuSans-13" transform="translate(63.625 0)"/>
     </g>
    </g>
   </g>
   <g id="xtick_7">
    <g id="line2d_8">
     <path d="M 348.202065 313.403538 
L 345.091684 315.422517 
" style="fill: none; stroke: #000000; stroke-width: 0.8; stroke-linecap: square"/>
    </g>
    <g id="text_7">
     <!-- 12 -->
     <g transform="translate(332.192539 337.292113) scale(0.1 -0.1)">
      <use xlink:href="#DejaVuSans-14"/>
      <use xlink:href="#DejaVuSans-15" transform="translate(63.625 0)"/>
     </g>
    </g>
   </g>
   <g id="xtick_8">
    <g id="line2d_9">
     <path d="M 371.264518 320.791573 
L 368.180958 322.844183 
" style="fill: none; stroke: #000000; stroke-width: 0.8; stroke-linecap: square"/>
    </g>
    <g id="text_8">
     <!-- 14 -->
     <g transform="translate(355.281519 344.849966) scale(0.1 -0.1)">
      <use xlink:href="#DejaVuSans-14"/>
      <use xlink:href="#DejaVuSans-17" transform="translate(63.625 0)"/>
     </g>
    </g>
   </g>
   <g id="text_9">
    <!-- Carga no centro A (pedidos) -->
    <g transform="translate(204.515057 310.378028) rotate(-342.218449) scale(0.1 -0.1)">
     <defs>
      <path id="DejaVuSans-26" d="M 4122 4306 
L 4122 3641 
Q 3803 3938 3442 4084 
Q 3081 4231 2675 4231 
Q 1875 4231 1450 3742 
Q 1025 3253 1025 2328 
Q 1025 1406 1450 917 
Q 1875 428 2675 428 
Q 3081 428 3442 575 
Q 3803 722 4122 1019 
L 4122 359 
Q 3791 134 3420 21 
Q 3050 -91 2638 -91 
Q 1578 -91 968 557 
Q 359 1206 359 2328 
Q 359 3453 968 4101 
Q 1578 4750 2638 4750 
Q 3056 4750 3426 4639 
Q 3797 4528 4122 4306 
z
" transform="scale(0.015625)"/>
      <path id="DejaVuSans-44" d="M 2194 1759 
Q 1497 1759 1228 1600 
Q 959 1441 959 1056 
Q 959 750 1161 570 
Q 1363 391 1709 391 
Q 2188 391 2477 730 
Q 2766 1069 2766 1631 
L 2766 1759 
L 2194 1759 
z
M 3341 1997 
L 3341 0 
L 2766 0 
L 2766 531 
Q 2569 213 2275 61 
Q 1981 -91 1556 -91 
Q 1019 -91 701 211 
Q 384 513 384 1019 
Q 384 1609 779 1909 
Q 1175 2209 1959 2209 
L 2766 2209 
L 2766 2266 
Q 2766 2663 2505 2880 
Q 2244 3097 1772 3097 
Q 1472 3097 1187 3025 
Q 903 2953 641 2809 
L 641 3341 
Q 956 3463 1253 3523 
Q 1550 3584 1831 3584 
Q 2591 3584 2966 3190 
Q 3341 2797 3341 1997 
z
" transform="scale(0.015625)"/>
      <path id="DejaVuSans-55" d="M 2631 2963 
Q 2534 3019 2420 3045 
Q 2306 3072 2169 3072 
Q 1681 3072 1420 2755 
Q 1159 2438 1159 1844 
L 1159 0 
L 581 0 
L 581 3500 
L 1159 3500 
L 1159 2956 
Q 1341 3275 1631 3429 
Q 1922 3584 2338 3584 
Q 2397 3584 2469 3576 
Q 2541 3569 2628 3553 
L 2631 2963 
z
" transform="scale(0.015625)"/>
      <path id="DejaVuSans-4a" d="M 2906 1791 
Q 2906 2416 2648 2759 
Q 2391 3103 1925 3103 
Q 1463 3103 1205 2759 
Q 947 2416 947 1791 
Q 947 1169 1205 825 
Q 1463 481 1925 481 
Q 2391 481 2648 825 
Q 2906 1169 2906 1791 
z
M 3481 434 
Q 3481 -459 3084 -895 
Q 2688 -1331 1869 -1331 
Q 1566 -1331 1297 -1286 
Q 1028 -1241 775 -1147 
L 775 -588 
Q 1028 -725 1275 -790 
Q 1522 -856 1778 -856 
Q 2344 -856 2625 -561 
Q 2906 -266 2906 331 
L 2906 616 
Q 2728 306 2450 153 
Q 2172 0 1784 0 
Q 1141 0 747 490 
Q 353 981 353 1791 
Q 353 2603 747 3093 
Q 1141 3584 1784 3584 
Q 2172 3584 2450 3431 
Q 2728 3278 2906 2969 
L 2906 3500 
L 3481 3500 
L 3481 434 
z
" transform="scale(0.015625)"/>
      <path id="DejaVuSans-3" transform="scale(0.015625)"/>
      <path id="DejaVuSans-51" d="M 3513 2113 
L 3513 0 
L 2938 0 
L 2938 2094 
Q 2938 2591 2744 2837 
Q 2550 3084 2163 3084 
Q 1697 3084 1428 2787 
Q 1159 2491 1159 1978 
L 1159 0 
L 581 0 
L 581 3500 
L 1159 3500 
L 1159 2956 
Q 1366 3272 1645 3428 
Q 1925 3584 2291 3584 
Q 2894 3584 3203 3211 
Q 3513 2838 3513 2113 
z
" transform="scale(0.015625)"/>
      <path id="DejaVuSans-52" d="M 1959 3097 
Q 1497 3097 1228 2736 
Q 959 2375 959 1747 
Q 959 1119 1226 758 
Q 1494 397 1959 397 
Q 2419 397 2687 759 
Q 2956 1122 2956 1747 
Q 2956 2369 2687 2733 
Q 2419 3097 1959 3097 
z
M 1959 3584 
Q 2709 3584 3137 3096 
Q 3566 2609 3566 1747 
Q 3566 888 3137 398 
Q 2709 -91 1959 -91 
Q 1206 -91 779 398 
Q 353 888 353 1747 
Q 353 2609 779 3096 
Q 1206 3584 1959 3584 
z
" transform="scale(0.015625)"/>
      <path id="DejaVuSans-46" d="M 3122 3366 
L 3122 2828 
Q 2878 2963 2633 3030 
Q 2388 3097 2138 3097 
Q 1578 3097 1268 2742 
Q 959 2388 959 1747 
Q 959 1106 1268 751 
Q 1578 397 2138 397 
Q 2388 397 2633 464 
Q 2878 531 3122 666 
L 3122 134 
Q 2881 22 2623 -34 
Q 2366 -91 2075 -91 
Q 1284 -91 818 406 
Q 353 903 353 1747 
Q 353 2603 823 3093 
Q 1294 3584 2113 3584 
Q 2378 3584 2631 3529 
Q 2884 3475 3122 3366 
z
" transform="scale(0.015625)"/>
      <path id="DejaVuSans-48" d="M 3597 1894 
L 3597 1613 
L 953 1613 
Q 991 1019 1311 708 
Q 1631 397 2203 397 
Q 2534 397 2845 478 
Q 3156 559 3463 722 
L 3463 178 
Q 3153 47 2828 -22 
Q 2503 -91 2169 -91 
Q 1331 -91 842 396 
Q 353 884 353 1716 
Q 353 2575 817 3079 
Q 1281 3584 2069 3584 
Q 2775 3584 3186 3129 
Q 3597 2675 3597 1894 
z
M 3022 2063 
Q 3016 2534 2758 2815 
Q 2500 3097 2075 3097 
Q 1594 3097 1305 2825 
Q 1016 2553 972 2059 
L 3022 2063 
z
" transform="scale(0.015625)"/>
      <path id="DejaVuSans-57" d="M 1172 4494 
L 1172 3500 
L 2356 3500 
L 2356 3053 
L 1172 3053 
L 1172 1153 
Q 1172 725 1289 603 
Q 1406 481 1766 481 
L 2356 481 
L 2356 0 
L 1766 0 
Q 1100 0 847 248 
Q 594 497 594 1153 
L 594 3053 
L 172 3053 
L 172 3500 
L 594 3500 
L 594 4494 
L 1172 4494 
z
" transform="scale(0.015625)"/>
      <path id="DejaVuSans-24" d="M 2188 4044 
L 1331 1722 
L 3047 1722 
L 2188 4044 
z
M 1831 4666 
L 2547 4666 
L 4325 0 
L 3669 0 
L 3244 1197 
L 1141 1197 
L 716 0 
L 50 0 
L 1831 4666 
z
" transform="scale(0.015625)"/>
      <path id="DejaVuSans-b" d="M 1984 4856 
Q 1566 4138 1362 3434 
Q 1159 2731 1159 2009 
Q 1159 1288 1364 580 
Q 1569 -128 1984 -844 
L 1484 -844 
Q 1016 -109 783 600 
Q 550 1309 550 2009 
Q 550 2706 781 3412 
Q 1013 4119 1484 4856 
L 1984 4856 
z
" transform="scale(0.015625)"/>
      <path id="DejaVuSans-53" d="M 1159 525 
L 1159 -1331 
L 581 -1331 
L 581 3500 
L 1159 3500 
L 1159 2969 
Q 1341 3281 1617 3432 
Q 1894 3584 2278 3584 
Q 2916 3584 3314 3078 
Q 3713 2572 3713 1747 
Q 3713 922 3314 415 
Q 2916 -91 2278 -91 
Q 1894 -91 1617 61 
Q 1341 213 1159 525 
z
M 3116 1747 
Q 3116 2381 2855 2742 
Q 2594 3103 2138 3103 
Q 1681 3103 1420 2742 
Q 1159 2381 1159 1747 
Q 1159 1113 1420 752 
Q 1681 391 2138 391 
Q 2594 391 2855 752 
Q 3116 1113 3116 1747 
z
" transform="scale(0.015625)"/>
      <path id="DejaVuSans-47" d="M 2906 2969 
L 2906 4863 
L 3481 4863 
L 3481 0 
L 2906 0 
L 2906 525 
Q 2725 213 2448 61 
Q 2172 -91 1784 -91 
Q 1150 -91 751 415 
Q 353 922 353 1747 
Q 353 2572 751 3078 
Q 1150 3584 1784 3584 
Q 2172 3584 2448 3432 
Q 2725 3281 2906 2969 
z
M 947 1747 
Q 947 1113 1208 752 
Q 1469 391 1925 391 
Q 2381 391 2643 752 
Q 2906 1113 2906 1747 
Q 2906 2381 2643 2742 
Q 2381 3103 1925 3103 
Q 1469 3103 1208 2742 
Q 947 2381 947 1747 
z
" transform="scale(0.015625)"/>
      <path id="DejaVuSans-4c" d="M 603 3500 
L 1178 3500 
L 1178 0 
L 603 0 
L 603 3500 
z
M 603 4863 
L 1178 4863 
L 1178 4134 
L 603 4134 
L 603 4863 
z
" transform="scale(0.015625)"/>
      <path id="DejaVuSans-56" d="M 2834 3397 
L 2834 2853 
Q 2591 2978 2328 3040 
Q 2066 3103 1784 3103 
Q 1356 3103 1142 2972 
Q 928 2841 928 2578 
Q 928 2378 1081 2264 
Q 1234 2150 1697 2047 
L 1894 2003 
Q 2506 1872 2764 1633 
Q 3022 1394 3022 966 
Q 3022 478 2636 193 
Q 2250 -91 1575 -91 
Q 1294 -91 989 -36 
Q 684 19 347 128 
L 347 722 
Q 666 556 975 473 
Q 1284 391 1588 391 
Q 1994 391 2212 530 
Q 2431 669 2431 922 
Q 2431 1156 2273 1281 
Q 2116 1406 1581 1522 
L 1381 1569 
Q 847 1681 609 1914 
Q 372 2147 372 2553 
Q 372 3047 722 3315 
Q 1072 3584 1716 3584 
Q 2034 3584 2315 3537 
Q 2597 3491 2834 3397 
z
" transform="scale(0.015625)"/>
      <path id="DejaVuSans-c" d="M 513 4856 
L 1013 4856 
Q 1481 4119 1714 3412 
Q 1947 2706 1947 2009 
Q 1947 1309 1714 600 
Q 1481 -109 1013 -844 
L 513 -844 
Q 928 -128 1133 580 
Q 1338 1288 1338 2009 
Q 1338 2731 1133 3434 
Q 928 4138 513 4856 
z
" transform="scale(0.015625)"/>
     </defs>
     <use xlink:href="#DejaVuSans-26"/>
     <use xlink:href="#DejaVuSans-44" transform="translate(69.828125 0)"/>
     <use xlink:href="#DejaVuSans-55" transform="translate(131.109375 0)"/>
     <use xlink:href="#DejaVuSans-4a" transform="translate(170.46875 0)"/>
     <use xlink:href="#DejaVuSans-44" transform="translate(233.953125 0)"/>
     <use xlink:href="#DejaVuSans-3" transform="translate(295.234375 0)"/>
     <use xlink:href="#DejaVuSans-51" transform="translate(327.015625 0)"/>
     <use xlink:href="#DejaVuSans-52" transform="translate(390.390625 0)"/>
     <use xlink:href="#DejaVuSans-3" transform="translate(451.578125 0)"/>
     <use xlink:href="#DejaVuSans-46" transform="translate(483.359375 0)"/>
     <use xlink:href="#DejaVuSans-48" transform="translate(538.34375 0)"/>
     <use xlink:href="#DejaVuSans-51" transform="translate(599.875 0)"/>
     <use xlink:href="#DejaVuSans-57" transform="translate(663.25 0)"/>
     <use xlink:href="#DejaVuSans-55" transform="translate(702.453125 0)"/>
     <use xlink:href="#DejaVuSans-52" transform="translate(741.359375 0)"/>
     <use xlink:href="#DejaVuSans-3" transform="translate(802.546875 0)"/>
     <use xlink:href="#DejaVuSans-24" transform="translate(834.328125 0)"/>
     <use xlink:href="#DejaVuSans-3" transform="translate(902.734375 0)"/>
     <use xlink:href="#DejaVuSans-b" transform="translate(934.515625 0)"/>
     <use xlink:href="#DejaVuSans-53" transform="translate(973.53125 0)"/>
     <use xlink:href="#DejaVuSans-48" transform="translate(1037.015625 0)"/>
     <use xlink:href="#DejaVuSans-47" transform="translate(1098.546875 0)"/>
     <use xlink:href="#DejaVuSans-4c" transform="translate(1162.03125 0)"/>
     <use xlink:href="#DejaVuSans-47" transform="translate(1189.8125 0)"/>
     <use xlink:href="#DejaVuSans-52" transform="translate(1253.296875 0)"/>
     <use xlink:href="#DejaVuSans-56" transform="translate(1314.484375 0)"/>
     <use xlink:href="#DejaVuSans-c" transform="translate(1366.578125 0)"/>
    </g>
   </g>
  </g>
  <g id="axis3d_2">
   <g id="line2d_10">
    <path d="M 498.826992 246.615478 
L 382.162353 325.29892 
" style="fill: none; stroke: #000000; stroke-width: 0.8; stroke-linecap: square"/>
   </g>
   <g id="xtick_9">
    <g id="line2d_11">
     <path d="M 388.745703 319.370562 
L 393.249941 320.802292 
" style="fill: none; stroke: #000000; stroke-width: 0.8; stroke-linecap: square"/>
    </g>
    <g id="text_10">
     <!-- 0 -->
     <g transform="translate(399.451473 341.460024) scale(0.1 -0.1)">
      <use xlink:href="#DejaVuSans-13"/>
     </g>
    </g>
   </g>
   <g id="xtick_10">
    <g id="line2d_12">
     <path d="M 404.31204 308.889358 
L 408.788142 310.287825 
" style="fill: none; stroke: #000000; stroke-width: 0.8; stroke-linecap: square"/>
    </g>
    <g id="text_11">
     <!-- 2 -->
     <g transform="translate(414.893679 330.78334) scale(0.1 -0.1)">
      <use xlink:href="#DejaVuSans-15"/>
     </g>
    </g>
   </g>
   <g id="xtick_11">
    <g id="line2d_13">
     <path d="M 419.519078 298.650081 
L 423.967134 300.01643 
" style="fill: none; stroke: #000000; stroke-width: 0.8; stroke-linecap: square"/>
    </g>
    <g id="text_12">
     <!-- 4 -->
     <g transform="translate(429.978581 320.353695) scale(0.1 -0.1)">
      <use xlink:href="#DejaVuSans-17"/>
     </g>
    </g>
   </g>
   <g id="xtick_12">
    <g id="line2d_14">
     <path d="M 434.379114 288.644448 
L 438.799231 289.979773 
" style="fill: none; stroke: #000000; stroke-width: 0.8; stroke-linecap: square"/>
    </g>
    <g id="text_13">
     <!-- 6 -->
     <g transform="translate(444.718439 310.162612) scale(0.1 -0.1)">
      <use xlink:href="#DejaVuSans-19"/>
     </g>
    </g>
   </g>
   <g id="xtick_13">
    <g id="line2d_15">
     <path d="M 448.903892 278.864553 
L 453.29619 280.169899 
" style="fill: none; stroke: #000000; stroke-width: 0.8; stroke-linecap: square"/>
    </g>
    <g id="text_14">
     <!-- 8 -->
     <g transform="translate(459.124956 300.201999) scale(0.1 -0.1)">
      <use xlink:href="#DejaVuSans-1b"/>
     </g>
    </g>
   </g>
   <g id="xtick_14">
    <g id="line2d_16">
     <path d="M 463.10463 269.302842 
L 467.469243 270.579207 
" style="fill: none; stroke: #000000; stroke-width: 0.8; stroke-linecap: square"/>
    </g>
    <g id="text_15">
     <!-- 10 -->
     <g transform="translate(470.028065 290.464126) scale(0.1 -0.1)">
      <use xlink:href="#DejaVuSans-14"/>
      <use xlink:href="#DejaVuSans-13" transform="translate(63.625 0)"/>
     </g>
    </g>
   </g>
   <g id="xtick_15">
    <g id="line2d_17">
     <path d="M 476.992053 259.952094 
L 481.329126 261.200433 
" style="fill: none; stroke: #000000; stroke-width: 0.8; stroke-linecap: square"/>
    </g>
    <g id="text_16">
     <!-- 12 -->
     <g transform="translate(483.800953 280.941603) scale(0.1 -0.1)">
      <use xlink:href="#DejaVuSans-14"/>
      <use xlink:href="#DejaVuSans-15" transform="translate(63.625 0)"/>
     </g>
    </g>
   </g>
   <g id="xtick_16">
    <g id="line2d_18">
     <path d="M 490.576417 250.805403 
L 494.886105 252.026629 
" style="fill: none; stroke: #000000; stroke-width: 0.8; stroke-linecap: square"/>
    </g>
    <g id="text_17">
     <!-- 14 -->
     <g transform="translate(497.272587 271.627366) scale(0.1 -0.1)">
      <use xlink:href="#DejaVuSans-14"/>
      <use xlink:href="#DejaVuSans-17" transform="translate(63.625 0)"/>
     </g>
    </g>
   </g>
   <g id="text_18">
    <!-- Carga no centro B (pedidos) -->
    <g transform="translate(412.459624 354.796401) rotate(-33.99735) scale(0.1 -0.1)">
     <defs>
      <path id="DejaVuSans-25" d="M 1259 2228 
L 1259 519 
L 2272 519 
Q 2781 519 3026 730 
Q 3272 941 3272 1375 
Q 3272 1813 3026 2020 
Q 2781 2228 2272 2228 
L 1259 2228 
z
M 1259 4147 
L 1259 2741 
L 2194 2741 
Q 2656 2741 2882 2914 
Q 3109 3088 3109 3444 
Q 3109 3797 2882 3972 
Q 2656 4147 2194 4147 
L 1259 4147 
z
M 628 4666 
L 2241 4666 
Q 2963 4666 3353 4366 
Q 3744 4066 3744 3513 
Q 3744 3084 3544 2831 
Q 3344 2578 2956 2516 
Q 3422 2416 3680 2098 
Q 3938 1781 3938 1306 
Q 3938 681 3513 340 
Q 3088 0 2303 0 
L 628 0 
L 628 4666 
z
" transform="scale(0.015625)"/>
     </defs>
     <use xlink:href="#DejaVuSans-26"/>
     <use xlink:href="#DejaVuSans-44" transform="translate(69.828125 0)"/>
     <use xlink:href="#DejaVuSans-55" transform="translate(131.109375 0)"/>
     <use xlink:href="#DejaVuSans-4a" transform="translate(170.46875 0)"/>
     <use xlink:href="#DejaVuSans-44" transform="translate(233.953125 0)"/>
     <use xlink:href="#DejaVuSans-3" transform="translate(295.234375 0)"/>
     <use xlink:href="#DejaVuSans-51" transform="translate(327.015625 0)"/>
     <use xlink:href="#DejaVuSans-52" transform="translate(390.390625 0)"/>
     <use xlink:href="#DejaVuSans-3" transform="translate(451.578125 0)"/>
     <use xlink:href="#DejaVuSans-46" transform="translate(483.359375 0)"/>
     <use xlink:href="#DejaVuSans-48" transform="translate(538.34375 0)"/>
     <use xlink:href="#DejaVuSans-51" transform="translate(599.875 0)"/>
     <use xlink:href="#DejaVuSans-57" transform="translate(663.25 0)"/>
     <use xlink:href="#DejaVuSans-55" transform="translate(702.453125 0)"/>
     <use xlink:href="#DejaVuSans-52" transform="translate(741.359375 0)"/>
     <use xlink:href="#DejaVuSans-3" transform="translate(802.546875 0)"/>
     <use xlink:href="#DejaVuSans-25" transform="translate(834.328125 0)"/>
     <use xlink:href="#DejaVuSans-3" transform="translate(902.9375 0)"/>
     <use xlink:href="#DejaVuSans-b" transform="translate(934.71875 0)"/>
     <use xlink:href="#DejaVuSans-53" transform="translate(973.734375 0)"/>
     <use xlink:href="#DejaVuSans-48" transform="translate(1037.21875 0)"/>
     <use xlink:href="#DejaVuSans-47" transform="translate(1098.75 0)"/>
     <use xlink:href="#DejaVuSans-4c" transform="translate(1162.234375 0)"/>
     <use xlink:href="#DejaVuSans-47" transform="translate(1190.015625 0)"/>
     <use xlink:href="#DejaVuSans-52" transform="translate(1253.5 0)"/>
     <use xlink:href="#DejaVuSans-56" transform="translate(1314.6875 0)"/>
     <use xlink:href="#DejaVuSans-c" transform="translate(1366.78125 0)"/>
    </g>
   </g>
  </g>
  <g id="axis3d_3">
   <g id="line2d_19">
    <path d="M 498.826992 246.615478 
L 503.891522 100.407034 
" style="fill: none; stroke: #000000; stroke-width: 0.8; stroke-linecap: square"/>
   </g>
   <g id="xtick_17">
    <g id="line2d_20">
     <path d="M 497.565493 241.28434 
L 501.866594 242.486266 
" style="fill: none; stroke: #000000; stroke-width: 0.8; stroke-linecap: square"/>
    </g>
    <g id="text_19">
     <!-- 200 -->
     <g transform="translate(508.38819 247.862144) scale(0.1 -0.1)">
      <use xlink:href="#DejaVuSans-15"/>
      <use xlink:href="#DejaVuSans-13" transform="translate(63.625 0)"/>
      <use xlink:href="#DejaVuSans-13" transform="translate(127.25 0)"/>
     </g>
    </g>
   </g>
   <g id="xtick_18">
    <g id="line2d_21">
     <path d="M 498.502581 213.958512 
L 502.833227 215.127973 
" style="fill: none; stroke: #000000; stroke-width: 0.8; stroke-linecap: square"/>
    </g>
    <g id="text_20">
     <!-- 220 -->
     <g transform="translate(509.457092 220.56388) scale(0.1 -0.1)">
      <use xlink:href="#DejaVuSans-15"/>
      <use xlink:href="#DejaVuSans-15" transform="translate(63.625 0)"/>
      <use xlink:href="#DejaVuSans-13" transform="translate(127.25 0)"/>
     </g>
    </g>
   </g>
   <g id="xtick_19">
    <g id="line2d_22">
     <path d="M 499.452002 186.273022 
L 503.812601 187.409056 
" style="fill: none; stroke: #000000; stroke-width: 0.8; stroke-linecap: square"/>
    </g>
    <g id="text_21">
     <!-- 240 -->
     <g transform="translate(510.540045 192.906771) scale(0.1 -0.1)">
      <use xlink:href="#DejaVuSans-15"/>
      <use xlink:href="#DejaVuSans-17" transform="translate(63.625 0)"/>
      <use xlink:href="#DejaVuSans-13" transform="translate(127.25 0)"/>
     </g>
    </g>
   </g>
   <g id="xtick_20">
    <g id="line2d_23">
     <path d="M 500.414002 158.220724 
L 504.80497 159.322338 
" style="fill: none; stroke: #000000; stroke-width: 0.8; stroke-linecap: square"/>
    </g>
    <g id="text_22">
     <!-- 260 -->
     <g transform="translate(511.637328 164.883694) scale(0.1 -0.1)">
      <use xlink:href="#DejaVuSans-15"/>
      <use xlink:href="#DejaVuSans-19" transform="translate(63.625 0)"/>
      <use xlink:href="#DejaVuSans-13" transform="translate(127.25 0)"/>
     </g>
    </g>
   </g>
   <g id="xtick_21">
    <g id="line2d_24">
     <path d="M 501.388833 129.794277 
L 505.810595 130.860449 
" style="fill: none; stroke: #000000; stroke-width: 0.8; stroke-linecap: square"/>
    </g>
    <g id="text_23">
     <!-- 280 -->
     <g transform="translate(512.749227 136.487336) scale(0.1 -0.1)">
      <use xlink:href="#DejaVuSans-15"/>
      <use xlink:href="#DejaVuSans-1b" transform="translate(63.625 0)"/>
      <use xlink:href="#DejaVuSans-13" transform="translate(127.25 0)"/>
     </g>
    </g>
   </g>
   <g id="xtick_22">
    <g id="line2d_25">
     <path d="M 502.376753 100.986147 
L 506.829744 102.015821 
" style="fill: none; stroke: #000000; stroke-width: 0.8; stroke-linecap: square"/>
    </g>
    <g id="text_24">
     <!-- 300 -->
     <g transform="translate(513.876037 107.710188) scale(0.1 -0.1)">
      <defs>
       <path id="DejaVuSans-16" d="M 2597 2516 
Q 3050 2419 3304 2112 
Q 3559 1806 3559 1356 
Q 3559 666 3084 287 
Q 2609 -91 1734 -91 
Q 1441 -91 1130 -33 
Q 819 25 488 141 
L 488 750 
Q 750 597 1062 519 
Q 1375 441 1716 441 
Q 2309 441 2620 675 
Q 2931 909 2931 1356 
Q 2931 1769 2642 2001 
Q 2353 2234 1838 2234 
L 1294 2234 
L 1294 2753 
L 1863 2753 
Q 2328 2753 2575 2939 
Q 2822 3125 2822 3475 
Q 2822 3834 2567 4026 
Q 2313 4219 1838 4219 
Q 1578 4219 1281 4162 
Q 984 4106 628 3988 
L 628 4550 
Q 988 4650 1302 4700 
Q 1616 4750 1894 4750 
Q 2613 4750 3031 4423 
Q 3450 4097 3450 3541 
Q 3450 3153 3228 2886 
Q 3006 2619 2597 2516 
z
" transform="scale(0.015625)"/>
      </defs>
      <use xlink:href="#DejaVuSans-16"/>
      <use xlink:href="#DejaVuSans-13" transform="translate(63.625 0)"/>
      <use xlink:href="#DejaVuSans-13" transform="translate(127.25 0)"/>
     </g>
    </g>
   </g>
   <g id="text_25">
    <!-- Custo total (u.m.) -->
    <g transform="translate(544.112506 215.972491) rotate(-88.016118) scale(0.1 -0.1)">
     <defs>
      <path id="DejaVuSans-58" d="M 544 1381 
L 544 3500 
L 1119 3500 
L 1119 1403 
Q 1119 906 1312 657 
Q 1506 409 1894 409 
Q 2359 409 2629 706 
Q 2900 1003 2900 1516 
L 2900 3500 
L 3475 3500 
L 3475 0 
L 2900 0 
L 2900 538 
Q 2691 219 2414 64 
Q 2138 -91 1772 -91 
Q 1169 -91 856 284 
Q 544 659 544 1381 
z
M 1991 3584 
L 1991 3584 
z
" transform="scale(0.015625)"/>
      <path id="DejaVuSans-4f" d="M 603 4863 
L 1178 4863 
L 1178 0 
L 603 0 
L 603 4863 
z
" transform="scale(0.015625)"/>
      <path id="DejaVuSans-11" d="M 684 794 
L 1344 794 
L 1344 0 
L 684 0 
L 684 794 
z
" transform="scale(0.015625)"/>
      <path id="DejaVuSans-50" d="M 3328 2828 
Q 3544 3216 3844 3400 
Q 4144 3584 4550 3584 
Q 5097 3584 5394 3201 
Q 5691 2819 5691 2113 
L 5691 0 
L 5113 0 
L 5113 2094 
Q 5113 2597 4934 2840 
Q 4756 3084 4391 3084 
Q 3944 3084 3684 2787 
Q 3425 2491 3425 1978 
L 3425 0 
L 2847 0 
L 2847 2094 
Q 2847 2600 2669 2842 
Q 2491 3084 2119 3084 
Q 1678 3084 1418 2786 
Q 1159 2488 1159 1978 
L 1159 0 
L 581 0 
L 581 3500 
L 1159 3500 
L 1159 2956 
Q 1356 3278 1631 3431 
Q 1906 3584 2284 3584 
Q 2666 3584 2933 3390 
Q 3200 3197 3328 2828 
z
" transform="scale(0.015625)"/>
     </defs>
     <use xlink:href="#DejaVuSans-26"/>
     <use xlink:href="#DejaVuSans-58" transform="translate(69.828125 0)"/>
     <use xlink:href="#DejaVuSans-56" transform="translate(133.203125 0)"/>
     <use xlink:href="#DejaVuSans-57" transform="translate(185.296875 0)"/>
     <use xlink:href="#DejaVuSans-52" transform="translate(224.5 0)"/>
     <use xlink:href="#DejaVuSans-3" transform="translate(285.6875 0)"/>
     <use xlink:href="#DejaVuSans-57" transform="translate(317.46875 0)"/>
     <use xlink:href="#DejaVuSans-52" transform="translate(356.671875 0)"/>
     <use xlink:href="#DejaVuSans-57" transform="translate(417.859375 0)"/>
     <use xlink:href="#DejaVuSans-44" transform="translate(457.0625 0)"/>
     <use xlink:href="#DejaVuSans-4f" transform="translate(518.34375 0)"/>
     <use xlink:href="#DejaVuSans-3" transform="translate(546.125 0)"/>
     <use xlink:href="#DejaVuSans-b" transform="translate(577.90625 0)"/>
     <use xlink:href="#DejaVuSans-58" transform="translate(616.921875 0)"/>
     <use xlink:href="#DejaVuSans-11" transform="translate(680.296875 0)"/>
     <use xlink:href="#DejaVuSans-50" transform="translate(712.078125 0)"/>
     <use xlink:href="#DejaVuSans-11" transform="translate(809.484375 0)"/>
     <use xlink:href="#DejaVuSans-c" transform="translate(841.265625 0)"/>
    </g>
   </g>
  </g>
  <g id="axes_1">
   <g id="Path3DCollection_1">
    <defs>
     <path id="m9abc9d834b" d="M 0 -7.245688 
L -1.626758 -2.239041 
L -6.891059 -2.239041 
L -2.63215 0.855237 
L -4.258909 5.861885 
L -0 2.767607 
L 4.258909 5.861885 
L 2.63215 0.855237 
L 6.891059 -2.239041 
L 1.626758 -2.239041 
z
" style="stroke: #e18a27"/>
    </defs>
    <g clip-path="url(#pc86e9b506a)">
     <use xlink:href="#m9abc9d834b" x="333.031922" y="197.525547" style="fill: #e18a27; stroke: #e18a27"/>
    </g>
   </g>
   <g id="text_26">
    <!-- Ótimo 203 -->
    <g transform="translate(333.110322 213.14151) scale(0.11 -0.11)">
     <defs>
      <path id="DejaVuSans-95" d="M 2522 4238 
Q 1834 4238 1429 3725 
Q 1025 3213 1025 2328 
Q 1025 1447 1429 934 
Q 1834 422 2522 422 
Q 3209 422 3611 934 
Q 4013 1447 4013 2328 
Q 4013 3213 3611 3725 
Q 3209 4238 2522 4238 
z
M 2522 4750 
Q 3503 4750 4090 4092 
Q 4678 3434 4678 2328 
Q 4678 1225 4090 567 
Q 3503 -91 2522 -91 
Q 1538 -91 948 565 
Q 359 1222 359 2328 
Q 359 3434 948 4092 
Q 1538 4750 2522 4750 
z
M 2694 5935 
L 3272 5935 
L 2559 5110 
L 2081 5110 
L 2694 5935 
z
" transform="scale(0.015625)"/>
     </defs>
     <use xlink:href="#DejaVuSans-95"/>
     <use xlink:href="#DejaVuSans-57" transform="translate(78.71875 0)"/>
     <use xlink:href="#DejaVuSans-4c" transform="translate(117.921875 0)"/>
     <use xlink:href="#DejaVuSans-50" transform="translate(145.703125 0)"/>
     <use xlink:href="#DejaVuSans-52" transform="translate(243.109375 0)"/>
     <use xlink:href="#DejaVuSans-3" transform="translate(304.296875 0)"/>
     <use xlink:href="#DejaVuSans-15" transform="translate(336.078125 0)"/>
     <use xlink:href="#DejaVuSans-13" transform="translate(399.703125 0)"/>
     <use xlink:href="#DejaVuSans-16" transform="translate(463.328125 0)"/>
    </g>
   </g>
   <g id="text_27">
    <!-- Paisagem discreta: carga A × carga B × custo -->
    <g transform="translate(182.266484 17.077969) scale(0.13 -0.13)">
     <defs>
      <path id="DejaVuSans-Bold-33" d="M 588 4666 
L 2584 4666 
Q 3475 4666 3951 4270 
Q 4428 3875 4428 3144 
Q 4428 2409 3951 2014 
Q 3475 1619 2584 1619 
L 1791 1619 
L 1791 0 
L 588 0 
L 588 4666 
z
M 1791 3794 
L 1791 2491 
L 2456 2491 
Q 2806 2491 2997 2661 
Q 3188 2831 3188 3144 
Q 3188 3456 2997 3625 
Q 2806 3794 2456 3794 
L 1791 3794 
z
" transform="scale(0.015625)"/>
      <path id="DejaVuSans-Bold-44" d="M 2106 1575 
Q 1756 1575 1579 1456 
Q 1403 1338 1403 1106 
Q 1403 894 1545 773 
Q 1688 653 1941 653 
Q 2256 653 2472 879 
Q 2688 1106 2688 1447 
L 2688 1575 
L 2106 1575 
z
M 3816 1997 
L 3816 0 
L 2688 0 
L 2688 519 
Q 2463 200 2181 54 
Q 1900 -91 1497 -91 
Q 953 -91 614 226 
Q 275 544 275 1050 
Q 275 1666 698 1953 
Q 1122 2241 2028 2241 
L 2688 2241 
L 2688 2328 
Q 2688 2594 2478 2717 
Q 2269 2841 1825 2841 
Q 1466 2841 1156 2769 
Q 847 2697 581 2553 
L 581 3406 
Q 941 3494 1303 3539 
Q 1666 3584 2028 3584 
Q 2975 3584 3395 3211 
Q 3816 2838 3816 1997 
z
" transform="scale(0.015625)"/>
      <path id="DejaVuSans-Bold-4c" d="M 538 3500 
L 1656 3500 
L 1656 0 
L 538 0 
L 538 3500 
z
M 538 4863 
L 1656 4863 
L 1656 3950 
L 538 3950 
L 538 4863 
z
" transform="scale(0.015625)"/>
      <path id="DejaVuSans-Bold-56" d="M 3272 3391 
L 3272 2541 
Q 2913 2691 2578 2766 
Q 2244 2841 1947 2841 
Q 1628 2841 1473 2761 
Q 1319 2681 1319 2516 
Q 1319 2381 1436 2309 
Q 1553 2238 1856 2203 
L 2053 2175 
Q 2913 2066 3209 1816 
Q 3506 1566 3506 1031 
Q 3506 472 3093 190 
Q 2681 -91 1863 -91 
Q 1516 -91 1145 -36 
Q 775 19 384 128 
L 384 978 
Q 719 816 1070 734 
Q 1422 653 1784 653 
Q 2113 653 2278 743 
Q 2444 834 2444 1013 
Q 2444 1163 2330 1236 
Q 2216 1309 1875 1350 
L 1678 1375 
Q 931 1469 631 1722 
Q 331 1975 331 2491 
Q 331 3047 712 3315 
Q 1094 3584 1881 3584 
Q 2191 3584 2531 3537 
Q 2872 3491 3272 3391 
z
" transform="scale(0.015625)"/>
      <path id="DejaVuSans-Bold-4a" d="M 2919 594 
Q 2688 288 2409 144 
Q 2131 0 1766 0 
Q 1125 0 706 504 
Q 288 1009 288 1791 
Q 288 2575 706 3076 
Q 1125 3578 1766 3578 
Q 2131 3578 2409 3434 
Q 2688 3291 2919 2981 
L 2919 3500 
L 4044 3500 
L 4044 353 
Q 4044 -491 3511 -936 
Q 2978 -1381 1966 -1381 
Q 1638 -1381 1331 -1331 
Q 1025 -1281 716 -1178 
L 716 -306 
Q 1009 -475 1290 -558 
Q 1572 -641 1856 -641 
Q 2406 -641 2662 -400 
Q 2919 -159 2919 353 
L 2919 594 
z
M 2181 2772 
Q 1834 2772 1640 2515 
Q 1447 2259 1447 1791 
Q 1447 1309 1634 1061 
Q 1822 813 2181 813 
Q 2531 813 2725 1069 
Q 2919 1325 2919 1791 
Q 2919 2259 2725 2515 
Q 2531 2772 2181 2772 
z
" transform="scale(0.015625)"/>
      <path id="DejaVuSans-Bold-48" d="M 4031 1759 
L 4031 1441 
L 1416 1441 
Q 1456 1047 1700 850 
Q 1944 653 2381 653 
Q 2734 653 3104 758 
Q 3475 863 3866 1075 
L 3866 213 
Q 3469 63 3072 -14 
Q 2675 -91 2278 -91 
Q 1328 -91 801 392 
Q 275 875 275 1747 
Q 275 2603 792 3093 
Q 1309 3584 2216 3584 
Q 3041 3584 3536 3087 
Q 4031 2591 4031 1759 
z
M 2881 2131 
Q 2881 2450 2695 2645 
Q 2509 2841 2209 2841 
Q 1884 2841 1681 2658 
Q 1478 2475 1428 2131 
L 2881 2131 
z
" transform="scale(0.015625)"/>
      <path id="DejaVuSans-Bold-50" d="M 3781 2919 
Q 3994 3244 4286 3414 
Q 4578 3584 4928 3584 
Q 5531 3584 5847 3212 
Q 6163 2841 6163 2131 
L 6163 0 
L 5038 0 
L 5038 1825 
Q 5041 1866 5042 1909 
Q 5044 1953 5044 2034 
Q 5044 2406 4934 2573 
Q 4825 2741 4581 2741 
Q 4263 2741 4089 2478 
Q 3916 2216 3909 1719 
L 3909 0 
L 2784 0 
L 2784 1825 
Q 2784 2406 2684 2573 
Q 2584 2741 2328 2741 
Q 2006 2741 1831 2477 
Q 1656 2213 1656 1722 
L 1656 0 
L 531 0 
L 531 3500 
L 1656 3500 
L 1656 2988 
Q 1863 3284 2130 3434 
Q 2397 3584 2719 3584 
Q 3081 3584 3359 3409 
Q 3638 3234 3781 2919 
z
" transform="scale(0.015625)"/>
      <path id="DejaVuSans-Bold-3" transform="scale(0.015625)"/>
      <path id="DejaVuSans-Bold-47" d="M 2919 2988 
L 2919 4863 
L 4044 4863 
L 4044 0 
L 2919 0 
L 2919 506 
Q 2688 197 2409 53 
Q 2131 -91 1766 -91 
Q 1119 -91 703 423 
Q 288 938 288 1747 
Q 288 2556 703 3070 
Q 1119 3584 1766 3584 
Q 2128 3584 2408 3439 
Q 2688 3294 2919 2988 
z
M 2181 722 
Q 2541 722 2730 984 
Q 2919 1247 2919 1747 
Q 2919 2247 2730 2509 
Q 2541 2772 2181 2772 
Q 1825 2772 1636 2509 
Q 1447 2247 1447 1747 
Q 1447 1247 1636 984 
Q 1825 722 2181 722 
z
" transform="scale(0.015625)"/>
      <path id="DejaVuSans-Bold-46" d="M 3366 3391 
L 3366 2478 
Q 3138 2634 2908 2709 
Q 2678 2784 2431 2784 
Q 1963 2784 1702 2511 
Q 1441 2238 1441 1747 
Q 1441 1256 1702 982 
Q 1963 709 2431 709 
Q 2694 709 2930 787 
Q 3166 866 3366 1019 
L 3366 103 
Q 3103 6 2833 -42 
Q 2563 -91 2291 -91 
Q 1344 -91 809 395 
Q 275 881 275 1747 
Q 275 2613 809 3098 
Q 1344 3584 2291 3584 
Q 2566 3584 2833 3536 
Q 3100 3488 3366 3391 
z
" transform="scale(0.015625)"/>
      <path id="DejaVuSans-Bold-55" d="M 3138 2547 
Q 2991 2616 2845 2648 
Q 2700 2681 2553 2681 
Q 2122 2681 1889 2404 
Q 1656 2128 1656 1613 
L 1656 0 
L 538 0 
L 538 3500 
L 1656 3500 
L 1656 2925 
Q 1872 3269 2151 3426 
Q 2431 3584 2822 3584 
Q 2878 3584 2943 3579 
Q 3009 3575 3134 3559 
L 3138 2547 
z
" transform="scale(0.015625)"/>
      <path id="DejaVuSans-Bold-57" d="M 1759 4494 
L 1759 3500 
L 2913 3500 
L 2913 2700 
L 1759 2700 
L 1759 1216 
Q 1759 972 1856 886 
Q 1953 800 2241 800 
L 2816 800 
L 2816 0 
L 1856 0 
Q 1194 0 917 276 
Q 641 553 641 1216 
L 641 2700 
L 84 2700 
L 84 3500 
L 641 3500 
L 641 4494 
L 1759 4494 
z
" transform="scale(0.015625)"/>
      <path id="DejaVuSans-Bold-1d" d="M 716 3500 
L 1844 3500 
L 1844 2291 
L 716 2291 
L 716 3500 
z
M 716 1209 
L 1844 1209 
L 1844 0 
L 716 0 
L 716 1209 
z
" transform="scale(0.015625)"/>
      <path id="DejaVuSans-Bold-24" d="M 3419 850 
L 1538 850 
L 1241 0 
L 31 0 
L 1759 4666 
L 3194 4666 
L 4922 0 
L 3713 0 
L 3419 850 
z
M 1838 1716 
L 3116 1716 
L 2478 3572 
L 1838 1716 
z
" transform="scale(0.015625)"/>
      <path id="DejaVuSans-Bold-99" d="M 4563 3359 
L 3206 2003 
L 4563 653 
L 4038 128 
L 2681 1478 
L 1325 128 
L 800 653 
L 2156 2003 
L 800 3359 
L 1325 3884 
L 2681 2528 
L 4038 3884 
L 4563 3359 
z
" transform="scale(0.015625)"/>
      <path id="DejaVuSans-Bold-25" d="M 2456 2859 
Q 2741 2859 2887 2984 
Q 3034 3109 3034 3353 
Q 3034 3594 2887 3720 
Q 2741 3847 2456 3847 
L 1791 3847 
L 1791 2859 
L 2456 2859 
z
M 2497 819 
Q 2859 819 3042 972 
Q 3225 1125 3225 1434 
Q 3225 1738 3044 1889 
Q 2863 2041 2497 2041 
L 1791 2041 
L 1791 819 
L 2497 819 
z
M 3616 2497 
Q 4003 2384 4215 2081 
Q 4428 1778 4428 1338 
Q 4428 663 3972 331 
Q 3516 0 2584 0 
L 588 0 
L 588 4666 
L 2394 4666 
Q 3366 4666 3802 4372 
Q 4238 4078 4238 3431 
Q 4238 3091 4078 2852 
Q 3919 2613 3616 2497 
z
" transform="scale(0.015625)"/>
      <path id="DejaVuSans-Bold-58" d="M 500 1363 
L 500 3500 
L 1625 3500 
L 1625 3150 
Q 1625 2866 1622 2436 
Q 1619 2006 1619 1863 
Q 1619 1441 1641 1255 
Q 1663 1069 1716 984 
Q 1784 875 1895 815 
Q 2006 756 2150 756 
Q 2500 756 2700 1025 
Q 2900 1294 2900 1772 
L 2900 3500 
L 4019 3500 
L 4019 0 
L 2900 0 
L 2900 506 
Q 2647 200 2364 54 
Q 2081 -91 1741 -91 
Q 1134 -91 817 281 
Q 500 653 500 1363 
z
" transform="scale(0.015625)"/>
      <path id="DejaVuSans-Bold-52" d="M 2203 2784 
Q 1831 2784 1636 2517 
Q 1441 2250 1441 1747 
Q 1441 1244 1636 976 
Q 1831 709 2203 709 
Q 2569 709 2762 976 
Q 2956 1244 2956 1747 
Q 2956 2250 2762 2517 
Q 2569 2784 2203 2784 
z
M 2203 3584 
Q 3106 3584 3614 3096 
Q 4122 2609 4122 1747 
Q 4122 884 3614 396 
Q 3106 -91 2203 -91 
Q 1297 -91 786 396 
Q 275 884 275 1747 
Q 275 2609 786 3096 
Q 1297 3584 2203 3584 
z
" transform="scale(0.015625)"/>
     </defs>
     <use xlink:href="#DejaVuSans-Bold-33"/>
     <use xlink:href="#DejaVuSans-Bold-44" transform="translate(70.609375 0)"/>
     <use xlink:href="#DejaVuSans-Bold-4c" transform="translate(138.09375 0)"/>
     <use xlink:href="#DejaVuSans-Bold-56" transform="translate(172.375 0)"/>
     <use xlink:href="#DejaVuSans-Bold-44" transform="translate(231.890625 0)"/>
     <use xlink:href="#DejaVuSans-Bold-4a" transform="translate(299.375 0)"/>
     <use xlink:href="#DejaVuSans-Bold-48" transform="translate(370.953125 0)"/>
     <use xlink:href="#DejaVuSans-Bold-50" transform="translate(438.78125 0)"/>
     <use xlink:href="#DejaVuSans-Bold-3" transform="translate(542.984375 0)"/>
     <use xlink:href="#DejaVuSans-Bold-47" transform="translate(577.796875 0)"/>
     <use xlink:href="#DejaVuSans-Bold-4c" transform="translate(649.375 0)"/>
     <use xlink:href="#DejaVuSans-Bold-56" transform="translate(683.65625 0)"/>
     <use xlink:href="#DejaVuSans-Bold-46" transform="translate(743.171875 0)"/>
     <use xlink:href="#DejaVuSans-Bold-55" transform="translate(802.453125 0)"/>
     <use xlink:href="#DejaVuSans-Bold-48" transform="translate(851.765625 0)"/>
     <use xlink:href="#DejaVuSans-Bold-57" transform="translate(919.59375 0)"/>
     <use xlink:href="#DejaVuSans-Bold-44" transform="translate(967.390625 0)"/>
     <use xlink:href="#DejaVuSans-Bold-1d" transform="translate(1034.875 0)"/>
     <use xlink:href="#DejaVuSans-Bold-3" transform="translate(1074.859375 0)"/>
     <use xlink:href="#DejaVuSans-Bold-46" transform="translate(1109.671875 0)"/>
     <use xlink:href="#DejaVuSans-Bold-44" transform="translate(1168.953125 0)"/>
     <use xlink:href="#DejaVuSans-Bold-55" transform="translate(1236.4375 0)"/>
     <use xlink:href="#DejaVuSans-Bold-4a" transform="translate(1285.75 0)"/>
     <use xlink:href="#DejaVuSans-Bold-44" transform="translate(1357.328125 0)"/>
     <use xlink:href="#DejaVuSans-Bold-3" transform="translate(1424.8125 0)"/>
     <use xlink:href="#DejaVuSans-Bold-24" transform="translate(1459.625 0)"/>
     <use xlink:href="#DejaVuSans-Bold-3" transform="translate(1537.015625 0)"/>
     <use xlink:href="#DejaVuSans-Bold-99" transform="translate(1571.828125 0)"/>
     <use xlink:href="#DejaVuSans-Bold-3" transform="translate(1655.625 0)"/>
     <use xlink:href="#DejaVuSans-Bold-46" transform="translate(1690.4375 0)"/>
     <use xlink:href="#DejaVuSans-Bold-44" transform="translate(1749.71875 0)"/>
     <use xlink:href="#DejaVuSans-Bold-55" transform="translate(1817.203125 0)"/>
     <use xlink:href="#DejaVuSans-Bold-4a" transform="translate(1866.515625 0)"/>
     <use xlink:href="#DejaVuSans-Bold-44" transform="translate(1938.09375 0)"/>
     <use xlink:href="#DejaVuSans-Bold-3" transform="translate(2005.578125 0)"/>
     <use xlink:href="#DejaVuSans-Bold-25" transform="translate(2040.390625 0)"/>
     <use xlink:href="#DejaVuSans-Bold-3" transform="translate(2116.609375 0)"/>
     <use xlink:href="#DejaVuSans-Bold-99" transform="translate(2151.421875 0)"/>
     <use xlink:href="#DejaVuSans-Bold-3" transform="translate(2235.21875 0)"/>
     <use xlink:href="#DejaVuSans-Bold-46" transform="translate(2270.03125 0)"/>
     <use xlink:href="#DejaVuSans-Bold-58" transform="translate(2329.3125 0)"/>
     <use xlink:href="#DejaVuSans-Bold-56" transform="translate(2400.5 0)"/>
     <use xlink:href="#DejaVuSans-Bold-57" transform="translate(2460.015625 0)"/>
     <use xlink:href="#DejaVuSans-Bold-52" transform="translate(2507.8125 0)"/>
    </g>
   </g>
   <g id="Path3DCollection_2">
    <defs>
     <path id="C0_0_3b2be762ee" d="M 0 2.345208 
C 0.621956 2.345208 1.218523 2.098102 1.658312 1.658312 
C 2.098102 1.218523 2.345208 0.621956 2.345208 -0 
C 2.345208 -0.621956 2.098102 -1.218523 1.658312 -1.658312 
C 1.218523 -2.098102 0.621956 -2.345208 0 -2.345208 
C -0.621956 -2.345208 -1.218523 -2.098102 -1.658312 -1.658312 
C -2.098102 -1.218523 -2.345208 -0.621956 -2.345208 0 
C -2.345208 0.621956 -2.098102 1.218523 -1.658312 1.658312 
C -1.218523 2.098102 -0.621956 2.345208 0 2.345208 
z
"/>
    </defs>
    <g clip-path="url(#pc86e9b506a)">
     <use xlink:href="#C0_0_3b2be762ee" x="333.031922" y="197.525547" style="fill: #007c91; fill-opacity: 0.03675; stroke: #007c91; stroke-opacity: 0.03675"/>
    </g>
    <g clip-path="url(#pc86e9b506a)">
     <use xlink:href="#C0_0_3b2be762ee" x="333.031922" y="197.525547" style="fill: #007c91; fill-opacity: 0.03675; stroke: #007c91; stroke-opacity: 0.03675"/>
    </g>
    <g clip-path="url(#pc86e9b506a)">
     <use xlink:href="#C0_0_3b2be762ee" x="332.952938" y="181.793243" style="fill: #007c91; fill-opacity: 0.03675; stroke: #007c91; stroke-opacity: 0.03675"/>
    </g>
    <g clip-path="url(#pc86e9b506a)">
     <use xlink:href="#C0_0_3b2be762ee" x="332.952938" y="181.793243" style="fill: #007c91; fill-opacity: 0.03675; stroke: #007c91; stroke-opacity: 0.03675"/>
    </g>
    <g clip-path="url(#pc86e9b506a)">
     <use xlink:href="#C0_0_3b2be762ee" x="318.355942" y="187.112793" style="fill: #007c91; fill-opacity: 0.038241; stroke: #007c91; stroke-opacity: 0.038241"/>
    </g>
    <g clip-path="url(#pc86e9b506a)">
     <use xlink:href="#C0_0_3b2be762ee" x="318.355942" y="187.112793" style="fill: #007c91; fill-opacity: 0.038241; stroke: #007c91; stroke-opacity: 0.038241"/>
    </g>
    <g clip-path="url(#pc86e9b506a)">
     <use xlink:href="#C0_0_3b2be762ee" x="318.22029" y="171.105925" style="fill: #007c91; fill-opacity: 0.040521; stroke: #007c91; stroke-opacity: 0.040521"/>
    </g>
    <g clip-path="url(#pc86e9b506a)">
     <use xlink:href="#C0_0_3b2be762ee" x="318.22029" y="171.105925" style="fill: #007c91; fill-opacity: 0.040521; stroke: #007c91; stroke-opacity: 0.040521"/>
    </g>
    <g clip-path="url(#pc86e9b506a)">
     <use xlink:href="#C0_0_3b2be762ee" x="373.908418" y="170.247198" style="fill: #007c91; fill-opacity: 0.043663; stroke: #007c91; stroke-opacity: 0.043663"/>
    </g>
    <g clip-path="url(#pc86e9b506a)">
     <use xlink:href="#C0_0_3b2be762ee" x="373.908418" y="170.247198" style="fill: #007c91; fill-opacity: 0.043663; stroke: #007c91; stroke-opacity: 0.043663"/>
    </g>
    <g clip-path="url(#pc86e9b506a)">
     <use xlink:href="#C0_0_3b2be762ee" x="338.587301" y="148.197754" style="fill: #007c91; fill-opacity: 0.049111; stroke: #007c91; stroke-opacity: 0.049111"/>
    </g>
    <g clip-path="url(#pc86e9b506a)">
     <use xlink:href="#C0_0_3b2be762ee" x="338.587301" y="148.197754" style="fill: #007c91; fill-opacity: 0.049111; stroke: #007c91; stroke-opacity: 0.049111"/>
    </g>
    <g clip-path="url(#pc86e9b506a)">
     <use xlink:href="#C0_0_3b2be762ee" x="374.109837" y="126.728639" style="fill: #007c91; fill-opacity: 0.049891; stroke: #007c91; stroke-opacity: 0.049891"/>
    </g>
    <g clip-path="url(#pc86e9b506a)">
     <use xlink:href="#C0_0_3b2be762ee" x="374.109837" y="126.728639" style="fill: #007c91; fill-opacity: 0.049891; stroke: #007c91; stroke-opacity: 0.049891"/>
    </g>
    <g clip-path="url(#pc86e9b506a)">
     <use xlink:href="#C0_0_3b2be762ee" x="338.527069" y="131.751396" style="fill: #007c91; fill-opacity: 0.051473; stroke: #007c91; stroke-opacity: 0.051473"/>
    </g>
    <g clip-path="url(#pc86e9b506a)">
     <use xlink:href="#C0_0_3b2be762ee" x="338.527069" y="131.751396" style="fill: #007c91; fill-opacity: 0.051473; stroke: #007c91; stroke-opacity: 0.051473"/>
    </g>
    <g clip-path="url(#pc86e9b506a)">
     <use xlink:href="#C0_0_3b2be762ee" x="359.498186" y="159.164337" style="fill: #007c91; fill-opacity: 0.052944; stroke: #007c91; stroke-opacity: 0.052944"/>
    </g>
    <g clip-path="url(#pc86e9b506a)">
     <use xlink:href="#C0_0_3b2be762ee" x="359.498186" y="159.164337" style="fill: #007c91; fill-opacity: 0.052944; stroke: #007c91; stroke-opacity: 0.052944"/>
    </g>
    <g clip-path="url(#pc86e9b506a)">
     <use xlink:href="#C0_0_3b2be762ee" x="416.614756" y="154.087079" style="fill: #007c91; fill-opacity: 0.056819; stroke: #007c91; stroke-opacity: 0.056819"/>
    </g>
    <g clip-path="url(#pc86e9b506a)">
     <use xlink:href="#C0_0_3b2be762ee" x="416.614756" y="154.087079" style="fill: #007c91; fill-opacity: 0.056819; stroke: #007c91; stroke-opacity: 0.056819"/>
    </g>
    <g clip-path="url(#pc86e9b506a)">
     <use xlink:href="#C0_0_3b2be762ee" x="380.706138" y="164.760451" style="fill: #007c91; fill-opacity: 0.05763; stroke: #007c91; stroke-opacity: 0.05763"/>
    </g>
    <g clip-path="url(#pc86e9b506a)">
     <use xlink:href="#C0_0_3b2be762ee" x="380.706138" y="164.760451" style="fill: #007c91; fill-opacity: 0.05763; stroke: #007c91; stroke-opacity: 0.05763"/>
    </g>
    <g clip-path="url(#pc86e9b506a)">
     <use xlink:href="#C0_0_3b2be762ee" x="459.059894" y="223.277847" style="fill: #007c91; fill-opacity: 0.057795; stroke: #007c91; stroke-opacity: 0.057795"/>
    </g>
    <g clip-path="url(#pc86e9b506a)">
     <use xlink:href="#C0_0_3b2be762ee" x="459.059894" y="223.277847" style="fill: #007c91; fill-opacity: 0.057795; stroke: #007c91; stroke-opacity: 0.057795"/>
    </g>
    <g clip-path="url(#pc86e9b506a)">
     <use xlink:href="#C0_0_3b2be762ee" x="416.857896" y="137.456325" style="fill: #007c91; fill-opacity: 0.059242; stroke: #007c91; stroke-opacity: 0.059242"/>
    </g>
    <g clip-path="url(#pc86e9b506a)">
     <use xlink:href="#C0_0_3b2be762ee" x="416.857896" y="137.456325" style="fill: #007c91; fill-opacity: 0.059242; stroke: #007c91; stroke-opacity: 0.059242"/>
    </g>
    <g clip-path="url(#pc86e9b506a)">
     <use xlink:href="#C0_0_3b2be762ee" x="344.691295" y="169.945801" style="fill: #007c91; fill-opacity: 0.059253; stroke: #007c91; stroke-opacity: 0.059253"/>
    </g>
    <g clip-path="url(#pc86e9b506a)">
     <use xlink:href="#C0_0_3b2be762ee" x="344.691295" y="169.945801" style="fill: #007c91; fill-opacity: 0.059253; stroke: #007c91; stroke-opacity: 0.059253"/>
    </g>
    <g clip-path="url(#pc86e9b506a)">
     <use xlink:href="#C0_0_3b2be762ee" x="359.552901" y="114.859707" style="fill: #007c91; fill-opacity: 0.059365; stroke: #007c91; stroke-opacity: 0.059365"/>
    </g>
    <g clip-path="url(#pc86e9b506a)">
     <use xlink:href="#C0_0_3b2be762ee" x="359.552901" y="114.859707" style="fill: #007c91; fill-opacity: 0.059365; stroke: #007c91; stroke-opacity: 0.059365"/>
    </g>
    <g clip-path="url(#pc86e9b506a)">
     <use xlink:href="#C0_0_3b2be762ee" x="344.62889" y="142.149822" style="fill: #007c91; fill-opacity: 0.063333; stroke: #007c91; stroke-opacity: 0.063333"/>
    </g>
    <g clip-path="url(#pc86e9b506a)">
     <use xlink:href="#C0_0_3b2be762ee" x="344.62889" y="142.149822" style="fill: #007c91; fill-opacity: 0.063333; stroke: #007c91; stroke-opacity: 0.063333"/>
    </g>
    <g clip-path="url(#pc86e9b506a)">
     <use xlink:href="#C0_0_3b2be762ee" x="380.983442" y="120.174736" style="fill: #007c91; fill-opacity: 0.064149; stroke: #007c91; stroke-opacity: 0.064149"/>
    </g>
    <g clip-path="url(#pc86e9b506a)">
     <use xlink:href="#C0_0_3b2be762ee" x="380.983442" y="120.174736" style="fill: #007c91; fill-opacity: 0.064149; stroke: #007c91; stroke-opacity: 0.064149"/>
    </g>
    <g clip-path="url(#pc86e9b506a)">
     <use xlink:href="#C0_0_3b2be762ee" x="460.158304" y="179.293401" style="fill: #007c91; fill-opacity: 0.064317; stroke: #007c91; stroke-opacity: 0.064317"/>
    </g>
    <g clip-path="url(#pc86e9b506a)">
     <use xlink:href="#C0_0_3b2be762ee" x="460.158304" y="179.293401" style="fill: #007c91; fill-opacity: 0.064317; stroke: #007c91; stroke-opacity: 0.064317"/>
    </g>
    <g clip-path="url(#pc86e9b506a)">
     <use xlink:href="#C0_0_3b2be762ee" x="402.553879" y="142.508823" style="fill: #007c91; fill-opacity: 0.066509; stroke: #007c91; stroke-opacity: 0.066509"/>
    </g>
    <g clip-path="url(#pc86e9b506a)">
     <use xlink:href="#C0_0_3b2be762ee" x="402.553879" y="142.508823" style="fill: #007c91; fill-opacity: 0.066509; stroke: #007c91; stroke-opacity: 0.066509"/>
    </g>
    <g clip-path="url(#pc86e9b506a)">
     <use xlink:href="#C0_0_3b2be762ee" x="387.558167" y="192.664062" style="fill: #007c91; fill-opacity: 0.067226; stroke: #007c91; stroke-opacity: 0.067226"/>
    </g>
    <g clip-path="url(#pc86e9b506a)">
     <use xlink:href="#C0_0_3b2be762ee" x="387.558167" y="192.664062" style="fill: #007c91; fill-opacity: 0.067226; stroke: #007c91; stroke-opacity: 0.067226"/>
    </g>
    <g clip-path="url(#pc86e9b506a)">
     <use xlink:href="#C0_0_3b2be762ee" x="402.745161" y="125.571902" style="fill: #007c91; fill-opacity: 0.069008; stroke: #007c91; stroke-opacity: 0.069008"/>
    </g>
    <g clip-path="url(#pc86e9b506a)">
     <use xlink:href="#C0_0_3b2be762ee" x="402.745161" y="125.571902" style="fill: #007c91; fill-opacity: 0.069008; stroke: #007c91; stroke-opacity: 0.069008"/>
    </g>
    <g clip-path="url(#pc86e9b506a)">
     <use xlink:href="#C0_0_3b2be762ee" x="329.448616" y="158.569743" style="fill: #007c91; fill-opacity: 0.06902; stroke: #007c91; stroke-opacity: 0.06902"/>
    </g>
    <g clip-path="url(#pc86e9b506a)">
     <use xlink:href="#C0_0_3b2be762ee" x="329.448616" y="158.569743" style="fill: #007c91; fill-opacity: 0.06902; stroke: #007c91; stroke-opacity: 0.06902"/>
    </g>
    <g clip-path="url(#pc86e9b506a)">
     <use xlink:href="#C0_0_3b2be762ee" x="424.565209" y="148.099625" style="fill: #007c91; fill-opacity: 0.071405; stroke: #007c91; stroke-opacity: 0.071405"/>
    </g>
    <g clip-path="url(#pc86e9b506a)">
     <use xlink:href="#C0_0_3b2be762ee" x="424.565209" y="148.099625" style="fill: #007c91; fill-opacity: 0.071405; stroke: #007c91; stroke-opacity: 0.071405"/>
    </g>
    <g clip-path="url(#pc86e9b506a)">
     <use xlink:href="#C0_0_3b2be762ee" x="387.823354" y="159.015825" style="fill: #007c91; fill-opacity: 0.072254; stroke: #007c91; stroke-opacity: 0.072254"/>
    </g>
    <g clip-path="url(#pc86e9b506a)">
     <use xlink:href="#C0_0_3b2be762ee" x="387.823354" y="159.015825" style="fill: #007c91; fill-opacity: 0.072254; stroke: #007c91; stroke-opacity: 0.072254"/>
    </g>
    <g clip-path="url(#pc86e9b506a)">
     <use xlink:href="#C0_0_3b2be762ee" x="468.020855" y="218.907205" style="fill: #007c91; fill-opacity: 0.072427; stroke: #007c91; stroke-opacity: 0.072427"/>
    </g>
    <g clip-path="url(#pc86e9b506a)">
     <use xlink:href="#C0_0_3b2be762ee" x="468.020855" y="218.907205" style="fill: #007c91; fill-opacity: 0.072427; stroke: #007c91; stroke-opacity: 0.072427"/>
    </g>
    <g clip-path="url(#pc86e9b506a)">
     <use xlink:href="#C0_0_3b2be762ee" x="387.867962" y="153.355649" style="fill: #007c91; fill-opacity: 0.0731; stroke: #007c91; stroke-opacity: 0.0731"/>
    </g>
    <g clip-path="url(#pc86e9b506a)">
     <use xlink:href="#C0_0_3b2be762ee" x="387.867962" y="153.355649" style="fill: #007c91; fill-opacity: 0.0731; stroke: #007c91; stroke-opacity: 0.0731"/>
    </g>
    <g clip-path="url(#pc86e9b506a)">
     <use xlink:href="#C0_0_3b2be762ee" x="329.283987" y="130.260203" style="fill: #007c91; fill-opacity: 0.073229; stroke: #007c91; stroke-opacity: 0.073229"/>
    </g>
    <g clip-path="url(#pc86e9b506a)">
     <use xlink:href="#C0_0_3b2be762ee" x="329.283987" y="130.260203" style="fill: #007c91; fill-opacity: 0.073229; stroke: #007c91; stroke-opacity: 0.073229"/>
    </g>
    <g clip-path="url(#pc86e9b506a)">
     <use xlink:href="#C0_0_3b2be762ee" x="424.845796" y="131.053123" style="fill: #007c91; fill-opacity: 0.073942; stroke: #007c91; stroke-opacity: 0.073942"/>
    </g>
    <g clip-path="url(#pc86e9b506a)">
     <use xlink:href="#C0_0_3b2be762ee" x="424.845796" y="131.053123" style="fill: #007c91; fill-opacity: 0.073942; stroke: #007c91; stroke-opacity: 0.073942"/>
    </g>
    <g clip-path="url(#pc86e9b506a)">
     <use xlink:href="#C0_0_3b2be762ee" x="350.978895" y="164.308023" style="fill: #007c91; fill-opacity: 0.073954; stroke: #007c91; stroke-opacity: 0.073954"/>
    </g>
    <g clip-path="url(#pc86e9b506a)">
     <use xlink:href="#C0_0_3b2be762ee" x="350.978895" y="164.308023" style="fill: #007c91; fill-opacity: 0.073954; stroke: #007c91; stroke-opacity: 0.073954"/>
    </g>
    <g clip-path="url(#pc86e9b506a)">
     <use xlink:href="#C0_0_3b2be762ee" x="446.797083" y="159.466484" style="fill: #007c91; fill-opacity: 0.075522; stroke: #007c91; stroke-opacity: 0.075522"/>
    </g>
    <g clip-path="url(#pc86e9b506a)">
     <use xlink:href="#C0_0_3b2be762ee" x="446.797083" y="159.466484" style="fill: #007c91; fill-opacity: 0.075522; stroke: #007c91; stroke-opacity: 0.075522"/>
    </g>
    <g clip-path="url(#pc86e9b506a)">
     <use xlink:href="#C0_0_3b2be762ee" x="372.797364" y="181.500576" style="fill: #007c91; fill-opacity: 0.077246; stroke: #007c91; stroke-opacity: 0.077246"/>
    </g>
    <g clip-path="url(#pc86e9b506a)">
     <use xlink:href="#C0_0_3b2be762ee" x="372.797364" y="181.500576" style="fill: #007c91; fill-opacity: 0.077246; stroke: #007c91; stroke-opacity: 0.077246"/>
    </g>
    <g clip-path="url(#pc86e9b506a)">
     <use xlink:href="#C0_0_3b2be762ee" x="350.957098" y="135.81497" style="fill: #007c91; fill-opacity: 0.078229; stroke: #007c91; stroke-opacity: 0.078229"/>
    </g>
    <g clip-path="url(#pc86e9b506a)">
     <use xlink:href="#C0_0_3b2be762ee" x="350.957098" y="135.81497" style="fill: #007c91; fill-opacity: 0.078229; stroke: #007c91; stroke-opacity: 0.078229"/>
    </g>
    <g clip-path="url(#pc86e9b506a)">
     <use xlink:href="#C0_0_3b2be762ee" x="469.24149" y="173.830862" style="fill: #007c91; fill-opacity: 0.079261; stroke: #007c91; stroke-opacity: 0.079261"/>
    </g>
    <g clip-path="url(#pc86e9b506a)">
     <use xlink:href="#C0_0_3b2be762ee" x="469.24149" y="173.830862" style="fill: #007c91; fill-opacity: 0.079261; stroke: #007c91; stroke-opacity: 0.079261"/>
    </g>
    <g clip-path="url(#pc86e9b506a)">
     <use xlink:href="#C0_0_3b2be762ee" x="357.52957" y="210.013774" style="fill: #007c91; fill-opacity: 0.081445; stroke: #007c91; stroke-opacity: 0.081445"/>
    </g>
    <g clip-path="url(#pc86e9b506a)">
     <use xlink:href="#C0_0_3b2be762ee" x="357.52957" y="210.013774" style="fill: #007c91; fill-opacity: 0.081445; stroke: #007c91; stroke-opacity: 0.081445"/>
    </g>
    <g clip-path="url(#pc86e9b506a)">
     <use xlink:href="#C0_0_3b2be762ee" x="432.367904" y="170.649466" style="fill: #007c91; fill-opacity: 0.082304; stroke: #007c91; stroke-opacity: 0.082304"/>
    </g>
    <g clip-path="url(#pc86e9b506a)">
     <use xlink:href="#C0_0_3b2be762ee" x="432.367904" y="170.649466" style="fill: #007c91; fill-opacity: 0.082304; stroke: #007c91; stroke-opacity: 0.082304"/>
    </g>
    <g clip-path="url(#pc86e9b506a)">
     <use xlink:href="#C0_0_3b2be762ee" x="394.95131" y="187.494834" style="fill: #007c91; fill-opacity: 0.08231; stroke: #007c91; stroke-opacity: 0.08231"/>
    </g>
    <g clip-path="url(#pc86e9b506a)">
     <use xlink:href="#C0_0_3b2be762ee" x="394.95131" y="187.494834" style="fill: #007c91; fill-opacity: 0.08231; stroke: #007c91; stroke-opacity: 0.08231"/>
    </g>
    <g clip-path="url(#pc86e9b506a)">
     <use xlink:href="#C0_0_3b2be762ee" x="447.794917" y="113.527985" style="fill: #007c91; fill-opacity: 0.082424; stroke: #007c91; stroke-opacity: 0.082424"/>
    </g>
    <g clip-path="url(#pc86e9b506a)">
     <use xlink:href="#C0_0_3b2be762ee" x="447.794917" y="113.527985" style="fill: #007c91; fill-opacity: 0.082424; stroke: #007c91; stroke-opacity: 0.082424"/>
    </g>
    <g clip-path="url(#pc86e9b506a)">
     <use xlink:href="#C0_0_3b2be762ee" x="372.947445" y="147.224204" style="fill: #007c91; fill-opacity: 0.082436; stroke: #007c91; stroke-opacity: 0.082436"/>
    </g>
    <g clip-path="url(#pc86e9b506a)">
     <use xlink:href="#C0_0_3b2be762ee" x="372.947445" y="147.224204" style="fill: #007c91; fill-opacity: 0.082436; stroke: #007c91; stroke-opacity: 0.082436"/>
    </g>
    <g clip-path="url(#pc86e9b506a)">
     <use xlink:href="#C0_0_3b2be762ee" x="372.972695" y="141.457515" style="fill: #007c91; fill-opacity: 0.083309; stroke: #007c91; stroke-opacity: 0.083309"/>
    </g>
    <g clip-path="url(#pc86e9b506a)">
     <use xlink:href="#C0_0_3b2be762ee" x="372.972695" y="141.457515" style="fill: #007c91; fill-opacity: 0.083309; stroke: #007c91; stroke-opacity: 0.083309"/>
    </g>
    <g clip-path="url(#pc86e9b506a)">
     <use xlink:href="#C0_0_3b2be762ee" x="357.542922" y="192.948025" style="fill: #007c91; fill-opacity: 0.084064; stroke: #007c91; stroke-opacity: 0.084064"/>
    </g>
    <g clip-path="url(#pc86e9b506a)">
     <use xlink:href="#C0_0_3b2be762ee" x="357.542922" y="192.948025" style="fill: #007c91; fill-opacity: 0.084064; stroke: #007c91; stroke-opacity: 0.084064"/>
    </g>
    <g clip-path="url(#pc86e9b506a)">
     <use xlink:href="#C0_0_3b2be762ee" x="432.897804" y="141.824381" style="fill: #007c91; fill-opacity: 0.086691; stroke: #007c91; stroke-opacity: 0.086691"/>
    </g>
    <g clip-path="url(#pc86e9b506a)">
     <use xlink:href="#C0_0_3b2be762ee" x="432.897804" y="141.824381" style="fill: #007c91; fill-opacity: 0.086691; stroke: #007c91; stroke-opacity: 0.086691"/>
    </g>
    <g clip-path="url(#pc86e9b506a)">
     <use xlink:href="#C0_0_3b2be762ee" x="395.28313" y="152.994703" style="fill: #007c91; fill-opacity: 0.087582; stroke: #007c91; stroke-opacity: 0.087582"/>
    </g>
    <g clip-path="url(#pc86e9b506a)">
     <use xlink:href="#C0_0_3b2be762ee" x="395.28313" y="152.994703" style="fill: #007c91; fill-opacity: 0.087582; stroke: #007c91; stroke-opacity: 0.087582"/>
    </g>
    <g clip-path="url(#pc86e9b506a)">
     <use xlink:href="#C0_0_3b2be762ee" x="395.33896" y="147.189936" style="fill: #007c91; fill-opacity: 0.088469; stroke: #007c91; stroke-opacity: 0.088469"/>
    </g>
    <g clip-path="url(#pc86e9b506a)">
     <use xlink:href="#C0_0_3b2be762ee" x="395.33896" y="147.189936" style="fill: #007c91; fill-opacity: 0.088469; stroke: #007c91; stroke-opacity: 0.088469"/>
    </g>
    <g clip-path="url(#pc86e9b506a)">
     <use xlink:href="#C0_0_3b2be762ee" x="402.176686" y="228.365648" style="fill: #007c91; fill-opacity: 0.090893; stroke: #007c91; stroke-opacity: 0.090893"/>
    </g>
    <g clip-path="url(#pc86e9b506a)">
     <use xlink:href="#C0_0_3b2be762ee" x="402.176686" y="228.365648" style="fill: #007c91; fill-opacity: 0.090893; stroke: #007c91; stroke-opacity: 0.090893"/>
    </g>
    <g clip-path="url(#pc86e9b506a)">
     <use xlink:href="#C0_0_3b2be762ee" x="341.944162" y="198.876406" style="fill: #007c91; fill-opacity: 0.091925; stroke: #007c91; stroke-opacity: 0.091925"/>
    </g>
    <g clip-path="url(#pc86e9b506a)">
     <use xlink:href="#C0_0_3b2be762ee" x="341.944162" y="198.876406" style="fill: #007c91; fill-opacity: 0.091925; stroke: #007c91; stroke-opacity: 0.091925"/>
    </g>
    <g clip-path="url(#pc86e9b506a)">
     <use xlink:href="#C0_0_3b2be762ee" x="417.976947" y="158.857726" style="fill: #007c91; fill-opacity: 0.092811; stroke: #007c91; stroke-opacity: 0.092811"/>
    </g>
    <g clip-path="url(#pc86e9b506a)">
     <use xlink:href="#C0_0_3b2be762ee" x="417.976947" y="158.857726" style="fill: #007c91; fill-opacity: 0.092811; stroke: #007c91; stroke-opacity: 0.092811"/>
    </g>
    <g clip-path="url(#pc86e9b506a)">
     <use xlink:href="#C0_0_3b2be762ee" x="341.893537" y="181.486844" style="fill: #007c91; fill-opacity: 0.094629; stroke: #007c91; stroke-opacity: 0.094629"/>
    </g>
    <g clip-path="url(#pc86e9b506a)">
     <use xlink:href="#C0_0_3b2be762ee" x="341.893537" y="181.486844" style="fill: #007c91; fill-opacity: 0.094629; stroke: #007c91; stroke-opacity: 0.094629"/>
    </g>
    <g clip-path="url(#pc86e9b506a)">
     <use xlink:href="#C0_0_3b2be762ee" x="364.359805" y="205.149085" style="fill: #007c91; fill-opacity: 0.097224; stroke: #007c91; stroke-opacity: 0.097224"/>
    </g>
    <g clip-path="url(#pc86e9b506a)">
     <use xlink:href="#C0_0_3b2be762ee" x="364.359805" y="205.149085" style="fill: #007c91; fill-opacity: 0.097224; stroke: #007c91; stroke-opacity: 0.097224"/>
    </g>
    <g clip-path="url(#pc86e9b506a)">
     <use xlink:href="#C0_0_3b2be762ee" x="418.416316" y="129.47997" style="fill: #007c91; fill-opacity: 0.097343; stroke: #007c91; stroke-opacity: 0.097343"/>
    </g>
    <g clip-path="url(#pc86e9b506a)">
     <use xlink:href="#C0_0_3b2be762ee" x="418.416316" y="129.47997" style="fill: #007c91; fill-opacity: 0.097343; stroke: #007c91; stroke-opacity: 0.097343"/>
    </g>
    <g clip-path="url(#pc86e9b506a)">
     <use xlink:href="#C0_0_3b2be762ee" x="441.037579" y="164.815517" style="fill: #007c91; fill-opacity: 0.098125; stroke: #007c91; stroke-opacity: 0.098125"/>
    </g>
    <g clip-path="url(#pc86e9b506a)">
     <use xlink:href="#C0_0_3b2be762ee" x="441.037579" y="164.815517" style="fill: #007c91; fill-opacity: 0.098125; stroke: #007c91; stroke-opacity: 0.098125"/>
    </g>
    <g clip-path="url(#pc86e9b506a)">
     <use xlink:href="#C0_0_3b2be762ee" x="402.70605" y="182.07278" style="fill: #007c91; fill-opacity: 0.098132; stroke: #007c91; stroke-opacity: 0.098132"/>
    </g>
    <g clip-path="url(#pc86e9b506a)">
     <use xlink:href="#C0_0_3b2be762ee" x="402.70605" y="182.07278" style="fill: #007c91; fill-opacity: 0.098132; stroke: #007c91; stroke-opacity: 0.098132"/>
    </g>
    <g clip-path="url(#pc86e9b506a)">
     <use xlink:href="#C0_0_3b2be762ee" x="364.401844" y="187.644637" style="fill: #007c91; fill-opacity: 0.099973; stroke: #007c91; stroke-opacity: 0.099973"/>
    </g>
    <g clip-path="url(#pc86e9b506a)">
     <use xlink:href="#C0_0_3b2be762ee" x="364.401844" y="187.644637" style="fill: #007c91; fill-opacity: 0.099973; stroke: #007c91; stroke-opacity: 0.099973"/>
    </g>
    <g clip-path="url(#pc86e9b506a)">
     <use xlink:href="#C0_0_3b2be762ee" x="387.094558" y="217.364833" style="fill: #007c91; fill-opacity: 0.101684; stroke: #007c91; stroke-opacity: 0.101684"/>
    </g>
    <g clip-path="url(#pc86e9b506a)">
     <use xlink:href="#C0_0_3b2be762ee" x="387.094558" y="217.364833" style="fill: #007c91; fill-opacity: 0.101684; stroke: #007c91; stroke-opacity: 0.101684"/>
    </g>
    <g clip-path="url(#pc86e9b506a)">
     <use xlink:href="#C0_0_3b2be762ee" x="441.640773" y="135.240086" style="fill: #007c91; fill-opacity: 0.102731; stroke: #007c91; stroke-opacity: 0.102731"/>
    </g>
    <g clip-path="url(#pc86e9b506a)">
     <use xlink:href="#C0_0_3b2be762ee" x="441.640773" y="135.240086" style="fill: #007c91; fill-opacity: 0.102731; stroke: #007c91; stroke-opacity: 0.102731"/>
    </g>
    <g clip-path="url(#pc86e9b506a)">
     <use xlink:href="#C0_0_3b2be762ee" x="410.215952" y="223.882958" style="fill: #007c91; fill-opacity: 0.107143; stroke: #007c91; stroke-opacity: 0.107143"/>
    </g>
    <g clip-path="url(#pc86e9b506a)">
     <use xlink:href="#C0_0_3b2be762ee" x="410.215952" y="223.882958" style="fill: #007c91; fill-opacity: 0.107143; stroke: #007c91; stroke-opacity: 0.107143"/>
    </g>
    <g clip-path="url(#pc86e9b506a)">
     <use xlink:href="#C0_0_3b2be762ee" x="371.410666" y="229.648505" style="fill: #007c91; fill-opacity: 0.109034; stroke: #007c91; stroke-opacity: 0.109034"/>
    </g>
    <g clip-path="url(#pc86e9b506a)">
     <use xlink:href="#C0_0_3b2be762ee" x="371.410666" y="229.648505" style="fill: #007c91; fill-opacity: 0.109034; stroke: #007c91; stroke-opacity: 0.109034"/>
    </g>
    <g clip-path="url(#pc86e9b506a)">
     <use xlink:href="#C0_0_3b2be762ee" x="387.463427" y="170.177905" style="fill: #007c91; fill-opacity: 0.109164; stroke: #007c91; stroke-opacity: 0.109164"/>
    </g>
    <g clip-path="url(#pc86e9b506a)">
     <use xlink:href="#C0_0_3b2be762ee" x="387.463427" y="170.177905" style="fill: #007c91; fill-opacity: 0.109164; stroke: #007c91; stroke-opacity: 0.109164"/>
    </g>
    <g clip-path="url(#pc86e9b506a)">
     <use xlink:href="#C0_0_3b2be762ee" x="355.369269" y="270.17461" style="fill: #007c91; fill-opacity: 0.111989; stroke: #007c91; stroke-opacity: 0.111989"/>
    </g>
    <g clip-path="url(#pc86e9b506a)">
     <use xlink:href="#C0_0_3b2be762ee" x="355.369269" y="270.17461" style="fill: #007c91; fill-opacity: 0.111989; stroke: #007c91; stroke-opacity: 0.111989"/>
    </g>
    <g clip-path="url(#pc86e9b506a)">
     <use xlink:href="#C0_0_3b2be762ee" x="371.531998" y="200.040844" style="fill: #007c91; fill-opacity: 0.113793; stroke: #007c91; stroke-opacity: 0.113793"/>
    </g>
    <g clip-path="url(#pc86e9b506a)">
     <use xlink:href="#C0_0_3b2be762ee" x="371.531998" y="200.040844" style="fill: #007c91; fill-opacity: 0.113793; stroke: #007c91; stroke-opacity: 0.113793"/>
    </g>
    <g clip-path="url(#pc86e9b506a)">
     <use xlink:href="#C0_0_3b2be762ee" x="410.84958" y="176.378887" style="fill: #007c91; fill-opacity: 0.114747; stroke: #007c91; stroke-opacity: 0.114747"/>
    </g>
    <g clip-path="url(#pc86e9b506a)">
     <use xlink:href="#C0_0_3b2be762ee" x="410.84958" y="176.378887" style="fill: #007c91; fill-opacity: 0.114747; stroke: #007c91; stroke-opacity: 0.114747"/>
    </g>
    <g clip-path="url(#pc86e9b506a)">
     <use xlink:href="#C0_0_3b2be762ee" x="355.377316" y="240.723726" style="fill: #007c91; fill-opacity: 0.11679; stroke: #007c91; stroke-opacity: 0.11679"/>
    </g>
    <g clip-path="url(#pc86e9b506a)">
     <use xlink:href="#C0_0_3b2be762ee" x="355.377316" y="240.723726" style="fill: #007c91; fill-opacity: 0.11679; stroke: #007c91; stroke-opacity: 0.11679"/>
    </g>
    <g clip-path="url(#pc86e9b506a)">
     <use xlink:href="#C0_0_3b2be762ee" x="378.587264" y="277.233727" style="fill: #007c91; fill-opacity: 0.117618; stroke: #007c91; stroke-opacity: 0.117618"/>
    </g>
    <g clip-path="url(#pc86e9b506a)">
     <use xlink:href="#C0_0_3b2be762ee" x="378.587264" y="277.233727" style="fill: #007c91; fill-opacity: 0.117618; stroke: #007c91; stroke-opacity: 0.117618"/>
    </g>
    <g clip-path="url(#pc86e9b506a)">
     <use xlink:href="#C0_0_3b2be762ee" x="378.761501" y="247.586579" style="fill: #007c91; fill-opacity: 0.1225; stroke: #007c91; stroke-opacity: 0.1225"/>
    </g>
    <g clip-path="url(#pc86e9b506a)">
     <use xlink:href="#C0_0_3b2be762ee" x="378.761501" y="247.586579" style="fill: #007c91; fill-opacity: 0.1225; stroke: #007c91; stroke-opacity: 0.1225"/>
    </g>
   </g>
  </g>
  <g id="text_28">
   <!-- Somente serviço completo: carga C = 26 − A − B. Pontos não formam uma superfície contínua. -->
   <g transform="translate(7.2 394.597969) scale(0.1 -0.1)">
    <defs>
     <path id="DejaVuSans-36" d="M 3425 4513 
L 3425 3897 
Q 3066 4069 2747 4153 
Q 2428 4238 2131 4238 
Q 1616 4238 1336 4038 
Q 1056 3838 1056 3469 
Q 1056 3159 1242 3001 
Q 1428 2844 1947 2747 
L 2328 2669 
Q 3034 2534 3370 2195 
Q 3706 1856 3706 1288 
Q 3706 609 3251 259 
Q 2797 -91 1919 -91 
Q 1588 -91 1214 -16 
Q 841 59 441 206 
L 441 856 
Q 825 641 1194 531 
Q 1563 422 1919 422 
Q 2459 422 2753 634 
Q 3047 847 3047 1241 
Q 3047 1584 2836 1778 
Q 2625 1972 2144 2069 
L 1759 2144 
Q 1053 2284 737 2584 
Q 422 2884 422 3419 
Q 422 4038 858 4394 
Q 1294 4750 2059 4750 
Q 2388 4750 2728 4690 
Q 3069 4631 3425 4513 
z
" transform="scale(0.015625)"/>
     <path id="DejaVuSans-59" d="M 191 3500 
L 800 3500 
L 1894 563 
L 2988 3500 
L 3597 3500 
L 2284 0 
L 1503 0 
L 191 3500 
z
" transform="scale(0.015625)"/>
     <path id="DejaVuSans-a9" d="M 3122 3366 
L 3122 2828 
Q 2878 2963 2633 3030 
Q 2388 3097 2138 3097 
Q 1578 3097 1268 2742 
Q 959 2388 959 1747 
Q 959 1106 1268 751 
Q 1578 397 2138 397 
Q 2388 397 2633 464 
Q 2878 531 3122 666 
L 3122 134 
Q 2881 22 2623 -34 
Q 2366 -91 2075 -91 
Q 1284 -91 818 406 
Q 353 903 353 1747 
Q 353 2603 823 3093 
Q 1294 3584 2113 3584 
Q 2378 3584 2631 3529 
Q 2884 3475 3122 3366 
z
M 2310 0 
Q 2481 -194 2565 -358 
Q 2650 -522 2650 -672 
Q 2650 -950 2462 -1092 
Q 2275 -1234 1906 -1234 
Q 1763 -1234 1627 -1215 
Q 1491 -1197 1356 -1159 
L 1356 -750 
Q 1463 -803 1578 -826 
Q 1694 -850 1841 -850 
Q 2025 -850 2119 -775 
Q 2213 -700 2213 -556 
Q 2213 -463 2145 -327 
Q 2078 -191 1938 0 
L 2310 0 
z
" transform="scale(0.015625)"/>
     <path id="DejaVuSans-1d" d="M 750 794 
L 1409 794 
L 1409 0 
L 750 0 
L 750 794 
z
M 750 3309 
L 1409 3309 
L 1409 2516 
L 750 2516 
L 750 3309 
z
" transform="scale(0.015625)"/>
     <path id="DejaVuSans-20" d="M 678 2906 
L 4684 2906 
L 4684 2381 
L 678 2381 
L 678 2906 
z
M 678 1631 
L 4684 1631 
L 4684 1100 
L 678 1100 
L 678 1631 
z
" transform="scale(0.015625)"/>
     <path id="DejaVuSans-c9c" d="M 678 2272 
L 4684 2272 
L 4684 1741 
L 678 1741 
L 678 2272 
z
" transform="scale(0.015625)"/>
     <path id="DejaVuSans-33" d="M 1259 4147 
L 1259 2394 
L 2053 2394 
Q 2494 2394 2734 2622 
Q 2975 2850 2975 3272 
Q 2975 3691 2734 3919 
Q 2494 4147 2053 4147 
L 1259 4147 
z
M 628 4666 
L 2053 4666 
Q 2838 4666 3239 4311 
Q 3641 3956 3641 3272 
Q 3641 2581 3239 2228 
Q 2838 1875 2053 1875 
L 1259 1875 
L 1259 0 
L 628 0 
L 628 4666 
z
" transform="scale(0.015625)"/>
     <path id="DejaVuSans-a5" d="M 2194 1759 
Q 1497 1759 1228 1600 
Q 959 1441 959 1056 
Q 959 750 1161 570 
Q 1363 391 1709 391 
Q 2188 391 2477 730 
Q 2766 1069 2766 1631 
L 2766 1759 
L 2194 1759 
z
M 3341 1997 
L 3341 0 
L 2766 0 
L 2766 531 
Q 2569 213 2275 61 
Q 1981 -91 1556 -91 
Q 1019 -91 701 211 
Q 384 513 384 1019 
Q 384 1609 779 1909 
Q 1175 2209 1959 2209 
L 2766 2209 
L 2766 2266 
Q 2766 2663 2505 2880 
Q 2244 3097 1772 3097 
Q 1472 3097 1187 3025 
Q 903 2953 641 2809 
L 641 3341 
Q 956 3463 1253 3523 
Q 1550 3584 1831 3584 
Q 2591 3584 2966 3190 
Q 3341 2797 3341 1997 
z
M 1844 4281 
L 1665 4453 
Q 1597 4516 1545 4545 
Q 1494 4575 1453 4575 
Q 1334 4575 1278 4461 
Q 1222 4347 1215 4091 
L 825 4091 
Q 831 4513 990 4742 
Q 1150 4972 1434 4972 
Q 1553 4972 1653 4928 
Q 1753 4884 1869 4781 
L 2047 4609 
Q 2115 4547 2167 4517 
Q 2219 4488 2259 4488 
Q 2378 4488 2434 4602 
Q 2490 4716 2497 4972 
L 2887 4972 
Q 2881 4550 2721 4320 
Q 2562 4091 2278 4091 
Q 2159 4091 2059 4134 
Q 1959 4178 1844 4281 
z
" transform="scale(0.015625)"/>
     <path id="DejaVuSans-49" d="M 2375 4863 
L 2375 4384 
L 1825 4384 
Q 1516 4384 1395 4259 
Q 1275 4134 1275 3809 
L 1275 3500 
L 2222 3500 
L 2222 3053 
L 1275 3053 
L 1275 0 
L 697 0 
L 697 3053 
L 147 3053 
L 147 3500 
L 697 3500 
L 697 3744 
Q 697 4328 969 4595 
Q 1241 4863 1831 4863 
L 2375 4863 
z
" transform="scale(0.015625)"/>
     <path id="DejaVuSans-af" d="M 1325 5119 
L 1947 5119 
L 929 3944 
L 450 3944 
L 1325 5119 
z
M 603 3500 
L 1178 3500 
L 1178 0 
L 603 0 
L 603 3500 
z
M 891 3584 
L 891 3584 
z
" transform="scale(0.015625)"/>
    </defs>
    <use xlink:href="#DejaVuSans-36"/>
    <use xlink:href="#DejaVuSans-52" transform="translate(63.484375 0)"/>
    <use xlink:href="#DejaVuSans-50" transform="translate(124.671875 0)"/>
    <use xlink:href="#DejaVuSans-48" transform="translate(222.078125 0)"/>
    <use xlink:href="#DejaVuSans-51" transform="translate(283.609375 0)"/>
    <use xlink:href="#DejaVuSans-57" transform="translate(346.984375 0)"/>
    <use xlink:href="#DejaVuSans-48" transform="translate(386.1875 0)"/>
    <use xlink:href="#DejaVuSans-3" transform="translate(447.71875 0)"/>
    <use xlink:href="#DejaVuSans-56" transform="translate(479.5 0)"/>
    <use xlink:href="#DejaVuSans-48" transform="translate(531.59375 0)"/>
    <use xlink:href="#DejaVuSans-55" transform="translate(593.125 0)"/>
    <use xlink:href="#DejaVuSans-59" transform="translate(634.234375 0)"/>
    <use xlink:href="#DejaVuSans-4c" transform="translate(693.421875 0)"/>
    <use xlink:href="#DejaVuSans-a9" transform="translate(721.203125 0)"/>
    <use xlink:href="#DejaVuSans-52" transform="translate(776.1875 0)"/>
    <use xlink:href="#DejaVuSans-3" transform="translate(837.375 0)"/>
    <use xlink:href="#DejaVuSans-46" transform="translate(869.15625 0)"/>
    <use xlink:href="#DejaVuSans-52" transform="translate(924.140625 0)"/>
    <use xlink:href="#DejaVuSans-50" transform="translate(985.328125 0)"/>
    <use xlink:href="#DejaVuSans-53" transform="translate(1082.734375 0)"/>
    <use xlink:href="#DejaVuSans-4f" transform="translate(1146.21875 0)"/>
    <use xlink:href="#DejaVuSans-48" transform="translate(1174 0)"/>
    <use xlink:href="#DejaVuSans-57" transform="translate(1235.53125 0)"/>
    <use xlink:href="#DejaVuSans-52" transform="translate(1274.734375 0)"/>
    <use xlink:href="#DejaVuSans-1d" transform="translate(1335.921875 0)"/>
    <use xlink:href="#DejaVuSans-3" transform="translate(1369.609375 0)"/>
    <use xlink:href="#DejaVuSans-46" transform="translate(1401.390625 0)"/>
    <use xlink:href="#DejaVuSans-44" transform="translate(1456.375 0)"/>
    <use xlink:href="#DejaVuSans-55" transform="translate(1517.65625 0)"/>
    <use xlink:href="#DejaVuSans-4a" transform="translate(1557.015625 0)"/>
    <use xlink:href="#DejaVuSans-44" transform="translate(1620.5 0)"/>
    <use xlink:href="#DejaVuSans-3" transform="translate(1681.78125 0)"/>
    <use xlink:href="#DejaVuSans-26" transform="translate(1713.5625 0)"/>
    <use xlink:href="#DejaVuSans-3" transform="translate(1783.390625 0)"/>
    <use xlink:href="#DejaVuSans-20" transform="translate(1815.171875 0)"/>
    <use xlink:href="#DejaVuSans-3" transform="translate(1898.96875 0)"/>
    <use xlink:href="#DejaVuSans-15" transform="translate(1930.75 0)"/>
    <use xlink:href="#DejaVuSans-19" transform="translate(1994.375 0)"/>
    <use xlink:href="#DejaVuSans-3" transform="translate(2058 0)"/>
    <use xlink:href="#DejaVuSans-c9c" transform="translate(2089.78125 0)"/>
    <use xlink:href="#DejaVuSans-3" transform="translate(2173.578125 0)"/>
    <use xlink:href="#DejaVuSans-24" transform="translate(2205.359375 0)"/>
    <use xlink:href="#DejaVuSans-3" transform="translate(2273.765625 0)"/>
    <use xlink:href="#DejaVuSans-c9c" transform="translate(2305.546875 0)"/>
    <use xlink:href="#DejaVuSans-3" transform="translate(2389.34375 0)"/>
    <use xlink:href="#DejaVuSans-25" transform="translate(2421.125 0)"/>
    <use xlink:href="#DejaVuSans-11" transform="translate(2489.734375 0)"/>
    <use xlink:href="#DejaVuSans-3" transform="translate(2521.515625 0)"/>
    <use xlink:href="#DejaVuSans-33" transform="translate(2553.296875 0)"/>
    <use xlink:href="#DejaVuSans-52" transform="translate(2610.03125 0)"/>
    <use xlink:href="#DejaVuSans-51" transform="translate(2671.21875 0)"/>
    <use xlink:href="#DejaVuSans-57" transform="translate(2734.59375 0)"/>
    <use xlink:href="#DejaVuSans-52" transform="translate(2773.796875 0)"/>
    <use xlink:href="#DejaVuSans-56" transform="translate(2834.984375 0)"/>
    <use xlink:href="#DejaVuSans-3" transform="translate(2887.078125 0)"/>
    <use xlink:href="#DejaVuSans-51" transform="translate(2918.859375 0)"/>
    <use xlink:href="#DejaVuSans-a5" transform="translate(2982.234375 0)"/>
    <use xlink:href="#DejaVuSans-52" transform="translate(3043.515625 0)"/>
    <use xlink:href="#DejaVuSans-3" transform="translate(3104.703125 0)"/>
    <use xlink:href="#DejaVuSans-49" transform="translate(3136.484375 0)"/>
    <use xlink:href="#DejaVuSans-52" transform="translate(3171.6875 0)"/>
    <use xlink:href="#DejaVuSans-55" transform="translate(3232.875 0)"/>
    <use xlink:href="#DejaVuSans-50" transform="translate(3272.234375 0)"/>
    <use xlink:href="#DejaVuSans-44" transform="translate(3369.640625 0)"/>
    <use xlink:href="#DejaVuSans-50" transform="translate(3430.921875 0)"/>
    <use xlink:href="#DejaVuSans-3" transform="translate(3528.328125 0)"/>
    <use xlink:href="#DejaVuSans-58" transform="translate(3560.109375 0)"/>
    <use xlink:href="#DejaVuSans-50" transform="translate(3623.484375 0)"/>
    <use xlink:href="#DejaVuSans-44" transform="translate(3720.890625 0)"/>
    <use xlink:href="#DejaVuSans-3" transform="translate(3782.171875 0)"/>
    <use xlink:href="#DejaVuSans-56" transform="translate(3813.953125 0)"/>
    <use xlink:href="#DejaVuSans-58" transform="translate(3866.046875 0)"/>
    <use xlink:href="#DejaVuSans-53" transform="translate(3929.421875 0)"/>
    <use xlink:href="#DejaVuSans-48" transform="translate(3992.90625 0)"/>
    <use xlink:href="#DejaVuSans-55" transform="translate(4054.4375 0)"/>
    <use xlink:href="#DejaVuSans-49" transform="translate(4095.546875 0)"/>
    <use xlink:href="#DejaVuSans-af" transform="translate(4130.75 0)"/>
    <use xlink:href="#DejaVuSans-46" transform="translate(4158.53125 0)"/>
    <use xlink:href="#DejaVuSans-4c" transform="translate(4213.515625 0)"/>
    <use xlink:href="#DejaVuSans-48" transform="translate(4241.296875 0)"/>
    <use xlink:href="#DejaVuSans-3" transform="translate(4302.828125 0)"/>
    <use xlink:href="#DejaVuSans-46" transform="translate(4334.609375 0)"/>
    <use xlink:href="#DejaVuSans-52" transform="translate(4389.59375 0)"/>
    <use xlink:href="#DejaVuSans-51" transform="translate(4450.78125 0)"/>
    <use xlink:href="#DejaVuSans-57" transform="translate(4514.15625 0)"/>
    <use xlink:href="#DejaVuSans-af" transform="translate(4553.359375 0)"/>
    <use xlink:href="#DejaVuSans-51" transform="translate(4581.140625 0)"/>
    <use xlink:href="#DejaVuSans-58" transform="translate(4644.515625 0)"/>
    <use xlink:href="#DejaVuSans-44" transform="translate(4707.890625 0)"/>
    <use xlink:href="#DejaVuSans-11" transform="translate(4769.171875 0)"/>
   </g>
  </g>
 </g>
 <defs>
  <clipPath id="pc86e9b506a">
   <rect x="183.42" y="23.077969" width="332.64" height="332.64"/>
  </clipPath>
 </defs>
</svg>
